<svg xmlns="http://www.w3.org/2000/svg" viewBox="0 0 478 104" shape-rendering="crispEdges"><path fill="#ffffff" d="M172 0h10v1h-10zM190 0h10v1h-10zM210 0h10v1h-10zM231 0h9v1h-9zM249 0h10v1h-10zM172 1h10v1h-10zM190 1h10v1h-10zM210 1h10v1h-10zM231 1h9v1h-9zM250 1h10v1h-10zM10 2h7v1h-7zM43 2h2v1h-2zM58 2h2v1h-2zM135 2h3v1h-3zM168 2h14v1h-14zM190 2h10v1h-10zM210 2h8v1h-8zM232 2h8v1h-8zM249 2h13v1h-13zM341 2h9v1h-9zM359 2h3v1h-3zM374 2h3v1h-3zM385 2h7v1h-7zM8 3h9v1h-9zM42 3h3v1h-3zM57 3h3v1h-3zM101 3h1v1h-1zM120 3h1v1h-1zM134 3h6v1h-6zM168 3h14v1h-14zM190 3h10v1h-10zM210 3h8v1h-8zM219 3h1v1h-1zM232 3h8v1h-8zM250 3h12v1h-12zM293 3h1v1h-1zM300 3h1v1h-1zM309 3h1v1h-1zM324 3h1v1h-1zM340 3h13v1h-13zM359 3h3v1h-3zM374 3h3v1h-3zM384 3h8v1h-8zM8 4h8v1h-8zM38 4h2v1h-2zM43 4h4v1h-4zM56 4h3v1h-3zM63 4h2v1h-2zM97 4h5v1h-5zM120 4h1v1h-1zM134 4h6v1h-6zM168 4h14v1h-14zM190 4h10v1h-10zM210 4h10v1h-10zM231 4h9v1h-9zM250 4h12v1h-12zM292 4h3v1h-3zM299 4h3v1h-3zM308 4h3v1h-3zM324 4h1v1h-1zM341 4h12v1h-12zM355 4h1v1h-1zM360 4h4v1h-4zM372 4h4v1h-4zM379 4h2v1h-2zM383 4h8v1h-8zM430 4h2v1h-2zM8 5h8v1h-8zM38 5h3v1h-3zM45 5h3v1h-3zM55 5h3v1h-3zM62 5h3v1h-3zM97 5h5v1h-5zM133 5h7v1h-7zM168 5h14v1h-14zM190 5h9v1h-9zM210 5h10v1h-10zM232 5h8v1h-8zM250 5h13v1h-13zM291 5h4v1h-4zM298 5h4v1h-4zM304 5h2v1h-2zM308 5h4v1h-4zM337 5h1v1h-1zM342 5h10v1h-10zM354 5h3v1h-3zM362 5h3v1h-3zM371 5h3v1h-3zM379 5h3v1h-3zM383 5h7v1h-7zM8 6h3v1h-3zM13 6h1v1h-1zM38 6h2v1h-2zM44 6h7v1h-7zM54 6h4v1h-4zM62 6h4v1h-4zM97 6h1v1h-1zM100 6h2v1h-2zM131 6h8v1h-8zM167 6h3v1h-3zM172 6h10v1h-10zM190 6h1v1h-1zM192 6h1v1h-1zM195 6h1v1h-1zM198 6h1v1h-1zM210 6h10v1h-10zM222 6h7v1h-7zM231 6h8v1h-8zM250 6h20v1h-20zM290 6h5v1h-5zM298 6h3v1h-3zM303 6h4v1h-4zM308 6h5v1h-5zM328 6h1v1h-1zM336 6h3v1h-3zM342 6h5v1h-5zM354 6h3v1h-3zM361 6h6v1h-6zM371 6h4v1h-4zM379 6h3v1h-3zM383 6h3v1h-3zM387 6h2v1h-2zM8 7h3v1h-3zM38 7h2v1h-2zM43 7h17v1h-17zM62 7h3v1h-3zM130 7h7v1h-7zM147 7h3v1h-3zM163 7h6v1h-6zM174 7h1v1h-1zM177 7h1v1h-1zM181 7h9v1h-9zM202 7h8v1h-8zM229 7h1v1h-1zM241 7h8v1h-8zM254 7h5v1h-5zM261 7h2v1h-2zM264 7h4v1h-4zM290 7h5v1h-5zM296 7h4v1h-4zM303 7h4v1h-4zM308 7h5v1h-5zM336 7h4v1h-4zM354 7h3v1h-3zM359 7h18v1h-18zM379 7h3v1h-3zM383 7h3v1h-3zM9 8h2v1h-2zM21 8h1v1h-1zM31 8h2v1h-2zM38 8h3v1h-3zM42 8h18v1h-18zM62 8h3v1h-3zM71 8h3v1h-3zM80 8h3v1h-3zM95 8h9v1h-9zM129 8h7v1h-7zM139 8h3v1h-3zM146 8h4v1h-4zM162 8h7v1h-7zM174 8h1v1h-1zM181 8h9v1h-9zM201 8h9v1h-9zM221 8h9v1h-9zM241 8h9v1h-9zM255 8h1v1h-1zM258 8h1v1h-1zM260 8h2v1h-2zM273 8h1v1h-1zM283 8h1v1h-1zM291 8h9v1h-9zM303 8h9v1h-9zM337 8h7v1h-7zM354 8h3v1h-3zM359 8h18v1h-18zM379 8h3v1h-3zM384 8h3v1h-3zM9 9h4v1h-4zM20 9h3v1h-3zM31 9h2v1h-2zM38 9h27v1h-27zM70 9h5v1h-5zM79 9h5v1h-5zM94 9h11v1h-11zM122 9h5v1h-5zM130 9h5v1h-5zM138 9h3v1h-3zM146 9h4v1h-4zM162 9h7v1h-7zM173 9h3v1h-3zM181 9h9v1h-9zM201 9h9v1h-9zM220 9h10v1h-10zM240 9h10v1h-10zM255 9h1v1h-1zM258 9h4v1h-4zM272 9h3v1h-3zM283 9h2v1h-2zM292 9h8v1h-8zM303 9h8v1h-8zM326 9h2v1h-2zM329 9h1v1h-1zM338 9h8v1h-8zM354 9h28v1h-28zM384 9h4v1h-4zM9 10h4v1h-4zM20 10h3v1h-3zM31 10h2v1h-2zM38 10h8v1h-8zM47 10h9v1h-9zM57 10h8v1h-8zM69 10h7v1h-7zM78 10h7v1h-7zM94 10h11v1h-11zM110 10h1v1h-1zM113 10h1v1h-1zM118 10h1v1h-1zM121 10h6v1h-6zM131 10h4v1h-4zM138 10h1v1h-1zM162 10h7v1h-7zM173 10h3v1h-3zM181 10h9v1h-9zM201 10h9v1h-9zM220 10h10v1h-10zM240 10h10v1h-10zM254 10h5v1h-5zM260 10h2v1h-2zM271 10h4v1h-4zM282 10h3v1h-3zM292 10h5v1h-5zM306 10h6v1h-6zM322 10h1v1h-1zM325 10h6v1h-6zM339 10h14v1h-14zM354 10h8v1h-8zM364 10h8v1h-8zM374 10h8v1h-8zM384 10h4v1h-4zM9 11h4v1h-4zM20 11h2v1h-2zM23 11h1v1h-1zM30 11h2v1h-2zM38 11h27v1h-27zM69 11h7v1h-7zM78 11h7v1h-7zM94 11h11v1h-11zM108 11h4v1h-4zM113 11h15v1h-15zM132 11h2v1h-2zM161 11h8v1h-8zM173 11h3v1h-3zM181 11h9v1h-9zM201 11h9v1h-9zM220 11h10v1h-10zM240 11h10v1h-10zM254 11h5v1h-5zM260 11h2v1h-2zM272 11h2v1h-2zM282 11h2v1h-2zM292 11h4v1h-4zM297 11h3v1h-3zM307 11h9v1h-9zM317 11h11v1h-11zM329 11h2v1h-2zM338 11h15v1h-15zM354 11h28v1h-28zM384 11h4v1h-4zM8 12h5v1h-5zM17 12h1v1h-1zM22 12h2v1h-2zM26 12h1v1h-1zM30 12h2v1h-2zM35 12h30v1h-30zM69 12h7v1h-7zM78 12h7v1h-7zM94 12h11v1h-11zM108 12h3v1h-3zM113 12h11v1h-11zM153 12h2v1h-2zM160 12h8v1h-8zM170 12h1v1h-1zM175 12h2v1h-2zM179 12h11v1h-11zM201 12h9v1h-9zM221 12h9v1h-9zM240 12h10v1h-10zM254 12h9v1h-9zM269 12h1v1h-1zM274 12h2v1h-2zM278 12h1v1h-1zM282 12h1v1h-1zM287 12h1v1h-1zM293 12h3v1h-3zM297 12h3v1h-3zM307 12h2v1h-2zM312 12h4v1h-4zM317 12h11v1h-11zM336 12h16v1h-16zM354 12h28v1h-28zM383 12h5v1h-5zM8 13h5v1h-5zM17 13h2v1h-2zM21 13h3v1h-3zM26 13h2v1h-2zM30 13h3v1h-3zM35 13h30v1h-30zM70 13h1v1h-1zM74 13h2v1h-2zM78 13h2v1h-2zM83 13h1v1h-1zM95 13h8v1h-8zM116 13h7v1h-7zM151 13h5v1h-5zM160 13h8v1h-8zM170 13h2v1h-2zM174 13h3v1h-3zM178 13h12v1h-12zM201 13h9v1h-9zM220 13h10v1h-10zM240 13h10v1h-10zM257 13h6v1h-6zM268 13h3v1h-3zM273 13h2v1h-2zM277 13h3v1h-3zM282 13h3v1h-3zM287 13h2v1h-2zM292 13h4v1h-4zM297 13h3v1h-3zM307 13h4v1h-4zM320 13h7v1h-7zM334 13h17v1h-17zM354 13h28v1h-28zM383 13h5v1h-5zM8 14h5v1h-5zM17 14h2v1h-2zM21 14h2v1h-2zM25 14h4v1h-4zM31 14h2v1h-2zM35 14h2v1h-2zM39 14h25v1h-25zM73 14h1v1h-1zM97 14h1v1h-1zM101 14h1v1h-1zM125 14h1v1h-1zM151 14h5v1h-5zM159 14h9v1h-9zM170 14h2v1h-2zM174 14h2v1h-2zM178 14h12v1h-12zM201 14h6v1h-6zM208 14h2v1h-2zM220 14h1v1h-1zM240 14h10v1h-10zM257 14h7v1h-7zM269 14h1v1h-1zM273 14h1v1h-1zM277 14h4v1h-4zM283 14h2v1h-2zM287 14h2v1h-2zM292 14h9v1h-9zM306 14h5v1h-5zM333 14h17v1h-17zM356 14h24v1h-24zM383 14h5v1h-5zM434 14h3v1h-3zM8 15h4v1h-4zM21 15h1v1h-1zM25 15h4v1h-4zM32 15h1v1h-1zM40 15h23v1h-23zM93 15h1v1h-1zM105 15h1v1h-1zM136 15h2v1h-2zM150 15h7v1h-7zM159 15h9v1h-9zM170 15h2v1h-2zM178 15h12v1h-12zM202 15h8v1h-8zM230 15h20v1h-20zM257 15h2v1h-2zM262 15h2v1h-2zM269 15h1v1h-1zM273 15h1v1h-1zM277 15h4v1h-4zM284 15h1v1h-1zM292 15h10v1h-10zM305 15h6v1h-6zM329 15h1v1h-1zM333 15h17v1h-17zM357 15h22v1h-22zM383 15h4v1h-4zM434 15h1v1h-1zM8 16h2v1h-2zM41 16h21v1h-21zM93 16h1v1h-1zM101 16h1v1h-1zM147 16h2v1h-2zM153 16h4v1h-4zM159 16h9v1h-9zM171 16h1v1h-1zM178 16h1v1h-1zM181 16h2v1h-2zM185 16h5v1h-5zM210 16h8v1h-8zM232 16h8v1h-8zM256 16h3v1h-3zM262 16h2v1h-2zM291 16h11v1h-11zM304 16h9v1h-9zM334 16h18v1h-18zM357 16h21v1h-21zM383 16h3v1h-3zM418 16h1v1h-1zM435 16h3v1h-3zM24 17h1v1h-1zM29 17h1v1h-1zM42 17h3v1h-3zM57 17h3v1h-3zM89 17h3v1h-3zM106 17h4v1h-4zM146 17h4v1h-4zM154 17h3v1h-3zM159 17h9v1h-9zM177 17h1v1h-1zM182 17h1v1h-1zM191 17h9v1h-9zM210 17h8v1h-8zM232 17h8v1h-8zM255 17h4v1h-4zM262 17h3v1h-3zM276 17h1v1h-1zM281 17h1v1h-1zM290 17h5v1h-5zM296 17h5v1h-5zM303 17h4v1h-4zM308 17h5v1h-5zM335 17h17v1h-17zM359 17h3v1h-3zM374 17h3v1h-3zM416 17h2v1h-2zM435 17h1v1h-1zM22 18h3v1h-3zM29 18h2v1h-2zM42 18h3v1h-3zM58 18h2v1h-2zM89 18h3v1h-3zM96 18h2v1h-2zM101 18h2v1h-2zM107 18h3v1h-3zM147 18h3v1h-3zM158 18h10v1h-10zM175 18h3v1h-3zM181 18h3v1h-3zM190 18h10v1h-10zM210 18h8v1h-8zM232 18h8v1h-8zM255 18h3v1h-3zM262 18h3v1h-3zM274 18h3v1h-3zM280 18h3v1h-3zM290 18h5v1h-5zM297 18h3v1h-3zM303 18h3v1h-3zM308 18h5v1h-5zM335 18h17v1h-17zM359 18h3v1h-3zM374 18h3v1h-3zM419 18h1v1h-1zM421 18h1v1h-1zM428 18h1v1h-1zM21 19h5v1h-5zM28 19h5v1h-5zM40 19h4v1h-4zM58 19h5v1h-5zM95 19h9v1h-9zM158 19h10v1h-10zM174 19h4v1h-4zM181 19h5v1h-5zM190 19h10v1h-10zM210 19h9v1h-9zM232 19h8v1h-8zM254 19h3v1h-3zM262 19h4v1h-4zM273 19h5v1h-5zM280 19h4v1h-4zM291 19h4v1h-4zM298 19h2v1h-2zM303 19h2v1h-2zM308 19h4v1h-4zM333 19h20v1h-20zM357 19h3v1h-3zM375 19h4v1h-4zM415 19h1v1h-1zM420 19h1v1h-1zM9 20h43v1h-43zM58 20h89v1h-89zM152 20h67v1h-67zM231 20h9v1h-9zM247 20h43v1h-43zM292 20h62v1h-62zM356 20h3v1h-3zM374 20h13v1h-13zM414 20h1v1h-1zM437 20h1v1h-1zM7 21h46v1h-46zM56 21h93v1h-93zM150 21h90v1h-90zM245 21h46v1h-46zM292 21h47v1h-47zM340 21h15v1h-15zM357 21h2v1h-2zM372 21h16v1h-16zM437 21h1v1h-1zM6 22h234v1h-234zM244 22h112v1h-112zM371 22h17v1h-17zM438 22h1v1h-1zM441 22h1v1h-1zM6 23h234v1h-234zM244 23h112v1h-112zM371 23h17v1h-17zM414 23h1v1h-1zM434 23h2v1h-2zM439 23h1v1h-1zM442 23h1v1h-1zM5 24h201v1h-201zM207 24h31v1h-31zM243 24h114v1h-114zM370 24h18v1h-18zM418 24h2v1h-2zM427 24h3v1h-3zM432 24h5v1h-5zM439 24h5v1h-5zM5 25h197v1h-197zM214 25h4v1h-4zM219 25h2v1h-2zM231 25h7v1h-7zM243 25h102v1h-102zM351 25h6v1h-6zM370 25h7v1h-7zM381 25h8v1h-8zM417 25h7v1h-7zM427 25h2v1h-2zM431 25h1v1h-1zM433 25h1v1h-1zM436 25h2v1h-2zM439 25h4v1h-4zM445 25h1v1h-1zM5 26h6v1h-6zM50 26h9v1h-9zM98 26h8v1h-8zM145 26h8v1h-8zM192 26h9v1h-9zM232 26h6v1h-6zM243 26h6v1h-6zM288 26h8v1h-8zM335 26h9v1h-9zM351 26h6v1h-6zM370 26h6v1h-6zM383 26h6v1h-6zM415 26h3v1h-3zM421 26h1v1h-1zM434 26h5v1h-5zM440 26h2v1h-2zM446 26h1v1h-1zM5 27h6v1h-6zM50 27h9v1h-9zM98 27h8v1h-8zM145 27h8v1h-8zM193 27h8v1h-8zM232 27h6v1h-6zM243 27h5v1h-5zM288 27h8v1h-8zM335 27h9v1h-9zM351 27h6v1h-6zM370 27h6v1h-6zM383 27h6v1h-6zM415 27h3v1h-3zM423 27h1v1h-1zM426 27h1v1h-1zM429 27h1v1h-1zM432 27h1v1h-1zM434 27h1v1h-1zM437 27h11v1h-11zM5 28h6v1h-6zM50 28h9v1h-9zM98 28h8v1h-8zM145 28h8v1h-8zM193 28h8v1h-8zM232 28h16v1h-16zM288 28h8v1h-8zM335 28h9v1h-9zM351 28h10v1h-10zM366 28h10v1h-10zM383 28h6v1h-6zM415 28h3v1h-3zM423 28h1v1h-1zM426 28h1v1h-1zM428 28h1v1h-1zM430 28h1v1h-1zM434 28h4v1h-4zM440 28h2v1h-2zM447 28h3v1h-3zM5 29h6v1h-6zM50 29h9v1h-9zM98 29h8v1h-8zM145 29h8v1h-8zM193 29h8v1h-8zM232 29h17v1h-17zM288 29h8v1h-8zM335 29h9v1h-9zM351 29h12v1h-12zM364 29h12v1h-12zM383 29h6v1h-6zM415 29h1v1h-1zM423 29h5v1h-5zM430 29h3v1h-3zM437 29h3v1h-3zM441 29h1v1h-1zM445 29h2v1h-2zM448 29h2v1h-2zM5 30h6v1h-6zM50 30h9v1h-9zM98 30h8v1h-8zM145 30h8v1h-8zM193 30h8v1h-8zM232 30h17v1h-17zM288 30h8v1h-8zM335 30h9v1h-9zM351 30h25v1h-25zM383 30h6v1h-6zM415 30h2v1h-2zM422 30h5v1h-5zM431 30h4v1h-4zM436 30h3v1h-3zM442 30h1v1h-1zM445 30h1v1h-1zM448 30h1v1h-1zM450 30h1v1h-1zM5 31h6v1h-6zM50 31h9v1h-9zM98 31h8v1h-8zM145 31h8v1h-8zM193 31h8v1h-8zM232 31h1v1h-1zM234 31h15v1h-15zM288 31h8v1h-8zM335 31h9v1h-9zM351 31h25v1h-25zM383 31h6v1h-6zM414 31h3v1h-3zM422 31h4v1h-4zM428 31h1v1h-1zM430 31h1v1h-1zM432 31h5v1h-5zM438 31h1v1h-1zM441 31h2v1h-2zM444 31h1v1h-1zM446 31h3v1h-3zM450 31h1v1h-1zM5 32h6v1h-6zM50 32h9v1h-9zM98 32h8v1h-8zM145 32h8v1h-8zM193 32h8v1h-8zM241 32h8v1h-8zM288 32h8v1h-8zM335 32h9v1h-9zM351 32h25v1h-25zM383 32h6v1h-6zM414 32h4v1h-4zM422 32h4v1h-4zM431 32h1v1h-1zM433 32h1v1h-1zM446 32h2v1h-2zM451 32h1v1h-1zM5 33h20v1h-20zM34 33h25v1h-25zM67 33h39v1h-39zM114 33h39v1h-39zM161 33h40v1h-40zM220 33h11v1h-11zM242 33h7v1h-7zM257 33h39v1h-39zM304 33h23v1h-23zM335 33h9v1h-9zM352 33h4v1h-4zM357 33h17v1h-17zM383 33h6v1h-6zM414 33h1v1h-1zM417 33h2v1h-2zM420 33h1v1h-1zM422 33h3v1h-3zM445 33h1v1h-1zM451 33h1v1h-1zM458 33h2v1h-2zM5 34h21v1h-21zM34 34h25v1h-25zM66 34h40v1h-40zM114 34h39v1h-39zM161 34h40v1h-40zM209 34h12v1h-12zM222 34h2v1h-2zM227 34h5v1h-5zM242 34h7v1h-7zM256 34h40v1h-40zM303 34h25v1h-25zM335 34h9v1h-9zM359 34h9v1h-9zM383 34h6v1h-6zM413 34h2v1h-2zM416 34h2v1h-2zM421 34h2v1h-2zM434 34h1v1h-1zM450 34h3v1h-3zM454 34h5v1h-5zM460 34h1v1h-1zM462 34h1v1h-1zM6 35h20v1h-20zM34 35h25v1h-25zM66 35h40v1h-40zM114 35h39v1h-39zM161 35h40v1h-40zM209 35h22v1h-22zM242 35h6v1h-6zM256 35h40v1h-40zM303 35h25v1h-25zM335 35h9v1h-9zM359 35h9v1h-9zM383 35h6v1h-6zM414 35h3v1h-3zM418 35h2v1h-2zM421 35h1v1h-1zM445 35h1v1h-1zM449 35h1v1h-1zM454 35h4v1h-4zM459 35h2v1h-2zM462 35h2v1h-2zM6 36h20v1h-20zM34 36h25v1h-25zM66 36h40v1h-40zM113 36h40v1h-40zM161 36h40v1h-40zM209 36h22v1h-22zM242 36h6v1h-6zM256 36h40v1h-40zM303 36h25v1h-25zM335 36h9v1h-9zM359 36h9v1h-9zM383 36h6v1h-6zM414 36h1v1h-1zM434 36h1v1h-1zM437 36h1v1h-1zM445 36h2v1h-2zM449 36h1v1h-1zM451 36h1v1h-1zM454 36h1v1h-1zM456 36h1v1h-1zM458 36h7v1h-7zM7 37h19v1h-19zM34 37h25v1h-25zM66 37h40v1h-40zM114 37h39v1h-39zM161 37h40v1h-40zM209 37h22v1h-22zM242 37h6v1h-6zM256 37h40v1h-40zM303 37h25v1h-25zM335 37h9v1h-9zM359 37h9v1h-9zM383 37h6v1h-6zM414 37h1v1h-1zM416 37h3v1h-3zM433 37h3v1h-3zM457 37h1v1h-1zM459 37h2v1h-2zM462 37h3v1h-3zM9 38h17v1h-17zM34 38h17v1h-17zM53 38h6v1h-6zM66 38h33v1h-33zM100 38h6v1h-6zM113 38h33v1h-33zM147 38h6v1h-6zM161 38h32v1h-32zM196 38h5v1h-5zM209 38h22v1h-22zM242 38h6v1h-6zM256 38h32v1h-32zM290 38h6v1h-6zM303 38h25v1h-25zM335 38h9v1h-9zM359 38h9v1h-9zM383 38h6v1h-6zM414 38h1v1h-1zM416 38h1v1h-1zM423 38h1v1h-1zM433 38h3v1h-3zM444 38h1v1h-1zM451 38h1v1h-1zM459 38h1v1h-1zM461 38h3v1h-3zM20 39h6v1h-6zM34 39h6v1h-6zM53 39h6v1h-6zM66 39h6v1h-6zM100 39h6v1h-6zM113 39h21v1h-21zM148 39h5v1h-5zM161 39h5v1h-5zM196 39h5v1h-5zM209 39h22v1h-22zM242 39h6v1h-6zM256 39h21v1h-21zM290 39h6v1h-6zM303 39h25v1h-25zM335 39h9v1h-9zM359 39h9v1h-9zM383 39h6v1h-6zM414 39h3v1h-3zM422 39h2v1h-2zM433 39h4v1h-4zM453 39h1v1h-1zM456 39h1v1h-1zM458 39h2v1h-2zM461 39h4v1h-4zM20 40h6v1h-6zM34 40h5v1h-5zM53 40h6v1h-6zM66 40h6v1h-6zM100 40h6v1h-6zM114 40h20v1h-20zM148 40h5v1h-5zM161 40h5v1h-5zM196 40h5v1h-5zM209 40h23v1h-23zM242 40h6v1h-6zM256 40h21v1h-21zM290 40h6v1h-6zM303 40h24v1h-24zM335 40h9v1h-9zM359 40h9v1h-9zM383 40h6v1h-6zM414 40h1v1h-1zM416 40h1v1h-1zM422 40h3v1h-3zM458 40h2v1h-2zM461 40h2v1h-2zM464 40h1v1h-1zM20 41h6v1h-6zM34 41h5v1h-5zM53 41h6v1h-6zM66 41h6v1h-6zM100 41h6v1h-6zM129 41h6v1h-6zM148 41h5v1h-5zM161 41h5v1h-5zM196 41h5v1h-5zM210 41h3v1h-3zM214 41h6v1h-6zM227 41h4v1h-4zM240 41h1v1h-1zM242 41h7v1h-7zM271 41h6v1h-6zM290 41h6v1h-6zM335 41h9v1h-9zM352 41h8v1h-8zM367 41h8v1h-8zM383 41h6v1h-6zM414 41h2v1h-2zM422 41h3v1h-3zM451 41h1v1h-1zM454 41h1v1h-1zM457 41h3v1h-3zM461 41h4v1h-4zM470 41h2v1h-2zM20 42h6v1h-6zM34 42h5v1h-5zM53 42h6v1h-6zM66 42h6v1h-6zM101 42h5v1h-5zM129 42h6v1h-6zM148 42h5v1h-5zM161 42h5v1h-5zM196 42h5v1h-5zM242 42h7v1h-7zM272 42h5v1h-5zM290 42h6v1h-6zM335 42h9v1h-9zM351 42h9v1h-9zM367 42h9v1h-9zM383 42h6v1h-6zM413 42h2v1h-2zM423 42h2v1h-2zM454 42h1v1h-1zM456 42h5v1h-5zM462 42h2v1h-2zM466 42h8v1h-8zM20 43h6v1h-6zM34 43h5v1h-5zM53 43h6v1h-6zM66 43h6v1h-6zM100 43h6v1h-6zM129 43h6v1h-6zM147 43h6v1h-6zM161 43h5v1h-5zM196 43h4v1h-4zM240 43h9v1h-9zM272 43h5v1h-5zM290 43h6v1h-6zM335 43h9v1h-9zM351 43h9v1h-9zM367 43h9v1h-9zM383 43h6v1h-6zM413 43h5v1h-5zM457 43h1v1h-1zM460 43h1v1h-1zM462 43h1v1h-1zM465 43h2v1h-2zM468 43h1v1h-1zM471 43h1v1h-1zM474 43h1v1h-1zM20 44h6v1h-6zM34 44h5v1h-5zM53 44h6v1h-6zM66 44h6v1h-6zM100 44h6v1h-6zM129 44h6v1h-6zM148 44h5v1h-5zM161 44h5v1h-5zM196 44h4v1h-4zM240 44h9v1h-9zM272 44h5v1h-5zM290 44h6v1h-6zM335 44h9v1h-9zM351 44h9v1h-9zM367 44h9v1h-9zM383 44h6v1h-6zM413 44h2v1h-2zM416 44h2v1h-2zM433 44h3v1h-3zM437 44h1v1h-1zM457 44h1v1h-1zM459 44h1v1h-1zM461 44h2v1h-2zM464 44h2v1h-2zM467 44h1v1h-1zM471 44h4v1h-4zM20 45h6v1h-6zM34 45h6v1h-6zM53 45h6v1h-6zM66 45h6v1h-6zM100 45h6v1h-6zM129 45h6v1h-6zM148 45h5v1h-5zM161 45h5v1h-5zM196 45h4v1h-4zM240 45h9v1h-9zM272 45h5v1h-5zM290 45h6v1h-6zM335 45h9v1h-9zM351 45h9v1h-9zM367 45h9v1h-9zM383 45h6v1h-6zM414 45h1v1h-1zM416 45h3v1h-3zM429 45h4v1h-4zM437 45h1v1h-1zM453 45h1v1h-1zM456 45h1v1h-1zM458 45h1v1h-1zM461 45h3v1h-3zM466 45h1v1h-1zM469 45h6v1h-6zM20 46h6v1h-6zM34 46h5v1h-5zM53 46h6v1h-6zM66 46h6v1h-6zM100 46h6v1h-6zM129 46h6v1h-6zM148 46h5v1h-5zM161 46h5v1h-5zM196 46h4v1h-4zM240 46h9v1h-9zM272 46h5v1h-5zM290 46h6v1h-6zM335 46h9v1h-9zM351 46h9v1h-9zM367 46h9v1h-9zM383 46h6v1h-6zM416 46h1v1h-1zM428 46h1v1h-1zM448 46h1v1h-1zM450 46h2v1h-2zM453 46h1v1h-1zM455 46h2v1h-2zM458 46h2v1h-2zM461 46h3v1h-3zM468 46h7v1h-7zM20 47h6v1h-6zM34 47h5v1h-5zM53 47h6v1h-6zM66 47h6v1h-6zM100 47h6v1h-6zM129 47h6v1h-6zM148 47h5v1h-5zM161 47h5v1h-5zM196 47h4v1h-4zM240 47h9v1h-9zM272 47h5v1h-5zM290 47h6v1h-6zM335 47h9v1h-9zM351 47h9v1h-9zM367 47h9v1h-9zM383 47h6v1h-6zM416 47h3v1h-3zM428 47h1v1h-1zM447 47h1v1h-1zM449 47h2v1h-2zM452 47h3v1h-3zM456 47h6v1h-6zM467 47h1v1h-1zM469 47h6v1h-6zM20 48h6v1h-6zM34 48h5v1h-5zM53 48h6v1h-6zM66 48h6v1h-6zM100 48h6v1h-6zM129 48h6v1h-6zM148 48h5v1h-5zM161 48h5v1h-5zM196 48h4v1h-4zM240 48h9v1h-9zM272 48h5v1h-5zM290 48h6v1h-6zM335 48h9v1h-9zM351 48h9v1h-9zM367 48h9v1h-9zM383 48h6v1h-6zM397 48h10v1h-10zM416 48h4v1h-4zM428 48h1v1h-1zM446 48h2v1h-2zM450 48h5v1h-5zM457 48h4v1h-4zM465 48h2v1h-2zM468 48h6v1h-6zM20 49h6v1h-6zM34 49h5v1h-5zM53 49h6v1h-6zM66 49h6v1h-6zM100 49h6v1h-6zM114 49h21v1h-21zM147 49h6v1h-6zM161 49h5v1h-5zM196 49h5v1h-5zM211 49h8v1h-8zM233 49h16v1h-16zM256 49h21v1h-21zM290 49h6v1h-6zM304 49h23v1h-23zM335 49h9v1h-9zM351 49h25v1h-25zM383 49h6v1h-6zM395 49h1v1h-1zM406 49h2v1h-2zM410 49h1v1h-1zM416 49h1v1h-1zM418 49h1v1h-1zM436 49h1v1h-1zM445 49h2v1h-2zM449 49h1v1h-1zM456 49h4v1h-4zM464 49h2v1h-2zM467 49h6v1h-6zM21 50h5v1h-5zM34 50h5v1h-5zM53 50h6v1h-6zM66 50h6v1h-6zM100 50h6v1h-6zM114 50h20v1h-20zM148 50h5v1h-5zM161 50h5v1h-5zM196 50h5v1h-5zM210 50h14v1h-14zM232 50h17v1h-17zM256 50h21v1h-21zM290 50h6v1h-6zM303 50h25v1h-25zM335 50h9v1h-9zM351 50h25v1h-25zM383 50h6v1h-6zM393 50h2v1h-2zM408 50h2v1h-2zM416 50h1v1h-1zM434 50h2v1h-2zM445 50h1v1h-1zM453 50h2v1h-2zM458 50h1v1h-1zM463 50h9v1h-9zM20 51h6v1h-6zM34 51h6v1h-6zM53 51h6v1h-6zM66 51h6v1h-6zM100 51h6v1h-6zM114 51h20v1h-20zM148 51h5v1h-5zM161 51h5v1h-5zM196 51h5v1h-5zM209 51h16v1h-16zM232 51h17v1h-17zM256 51h21v1h-21zM290 51h6v1h-6zM303 51h25v1h-25zM335 51h9v1h-9zM351 51h25v1h-25zM383 51h6v1h-6zM410 51h3v1h-3zM416 51h3v1h-3zM436 51h1v1h-1zM442 51h1v1h-1zM458 51h1v1h-1zM463 51h7v1h-7zM8 52h18v1h-18zM34 52h18v1h-18zM53 52h6v1h-6zM66 52h40v1h-40zM113 52h40v1h-40zM161 52h33v1h-33zM195 52h6v1h-6zM209 52h16v1h-16zM232 52h17v1h-17zM256 52h40v1h-40zM303 52h25v1h-25zM335 52h9v1h-9zM351 52h25v1h-25zM383 52h6v1h-6zM412 52h1v1h-1zM414 52h1v1h-1zM416 52h2v1h-2zM430 52h2v1h-2zM435 52h1v1h-1zM442 52h1v1h-1zM456 52h1v1h-1zM458 52h2v1h-2zM461 52h7v1h-7zM7 53h19v1h-19zM34 53h25v1h-25zM66 53h40v1h-40zM114 53h39v1h-39zM161 53h40v1h-40zM209 53h16v1h-16zM232 53h17v1h-17zM256 53h40v1h-40zM303 53h25v1h-25zM335 53h9v1h-9zM351 53h25v1h-25zM383 53h6v1h-6zM414 53h1v1h-1zM416 53h3v1h-3zM420 53h1v1h-1zM431 53h1v1h-1zM441 53h1v1h-1zM459 53h7v1h-7zM6 54h20v1h-20zM34 54h25v1h-25zM66 54h40v1h-40zM114 54h39v1h-39zM161 54h40v1h-40zM209 54h16v1h-16zM232 54h17v1h-17zM256 54h40v1h-40zM303 54h25v1h-25zM335 54h9v1h-9zM351 54h6v1h-6zM370 54h6v1h-6zM383 54h6v1h-6zM413 54h1v1h-1zM415 54h2v1h-2zM418 54h3v1h-3zM450 54h2v1h-2zM459 54h1v1h-1zM462 54h2v1h-2zM6 55h20v1h-20zM34 55h25v1h-25zM66 55h40v1h-40zM114 55h39v1h-39zM161 55h40v1h-40zM209 55h5v1h-5zM219 55h6v1h-6zM232 55h17v1h-17zM256 55h40v1h-40zM303 55h6v1h-6zM322 55h6v1h-6zM335 55h9v1h-9zM351 55h6v1h-6zM370 55h6v1h-6zM383 55h6v1h-6zM413 55h1v1h-1zM416 55h1v1h-1zM419 55h1v1h-1zM439 55h1v1h-1zM447 55h5v1h-5zM458 55h1v1h-1zM5 56h21v1h-21zM34 56h25v1h-25zM66 56h40v1h-40zM114 56h39v1h-39zM161 56h40v1h-40zM209 56h5v1h-5zM219 56h6v1h-6zM232 56h17v1h-17zM256 56h40v1h-40zM303 56h6v1h-6zM322 56h6v1h-6zM335 56h9v1h-9zM351 56h6v1h-6zM370 56h6v1h-6zM383 56h6v1h-6zM421 56h1v1h-1zM423 56h3v1h-3zM427 56h1v1h-1zM438 56h1v1h-1zM445 56h4v1h-4zM451 56h2v1h-2zM458 56h1v1h-1zM5 57h6v1h-6zM49 57h10v1h-10zM97 57h9v1h-9zM145 57h8v1h-8zM192 57h9v1h-9zM209 57h5v1h-5zM220 57h13v1h-13zM240 57h9v1h-9zM287 57h9v1h-9zM303 57h6v1h-6zM322 57h6v1h-6zM335 57h9v1h-9zM351 57h6v1h-6zM370 57h6v1h-6zM383 57h7v1h-7zM414 57h1v1h-1zM420 57h1v1h-1zM422 57h3v1h-3zM426 57h3v1h-3zM430 57h2v1h-2zM436 57h2v1h-2zM439 57h1v1h-1zM444 57h3v1h-3zM450 57h2v1h-2zM454 57h1v1h-1zM456 57h3v1h-3zM5 58h5v1h-5zM50 58h9v1h-9zM98 58h8v1h-8zM145 58h8v1h-8zM193 58h8v1h-8zM209 58h5v1h-5zM220 58h13v1h-13zM240 58h9v1h-9zM288 58h8v1h-8zM303 58h6v1h-6zM322 58h6v1h-6zM335 58h9v1h-9zM351 58h6v1h-6zM370 58h6v1h-6zM383 58h6v1h-6zM414 58h1v1h-1zM423 58h1v1h-1zM427 58h1v1h-1zM430 58h8v1h-8zM442 58h3v1h-3zM447 58h1v1h-1zM449 58h3v1h-3zM456 58h4v1h-4zM461 58h1v1h-1zM5 59h5v1h-5zM50 59h9v1h-9zM98 59h8v1h-8zM145 59h8v1h-8zM193 59h8v1h-8zM209 59h5v1h-5zM220 59h13v1h-13zM240 59h9v1h-9zM288 59h8v1h-8zM303 59h6v1h-6zM322 59h6v1h-6zM335 59h9v1h-9zM351 59h6v1h-6zM370 59h6v1h-6zM383 59h6v1h-6zM414 59h1v1h-1zM418 59h2v1h-2zM422 59h2v1h-2zM435 59h1v1h-1zM440 59h3v1h-3zM445 59h4v1h-4zM450 59h1v1h-1zM457 59h2v1h-2zM460 59h2v1h-2zM5 60h6v1h-6zM50 60h9v1h-9zM98 60h8v1h-8zM145 60h8v1h-8zM193 60h8v1h-8zM209 60h5v1h-5zM221 60h12v1h-12zM240 60h9v1h-9zM288 60h8v1h-8zM303 60h6v1h-6zM322 60h6v1h-6zM335 60h9v1h-9zM351 60h6v1h-6zM370 60h6v1h-6zM383 60h6v1h-6zM414 60h1v1h-1zM418 60h3v1h-3zM422 60h2v1h-2zM436 60h5v1h-5zM443 60h4v1h-4zM457 60h1v1h-1zM460 60h2v1h-2zM5 61h5v1h-5zM50 61h9v1h-9zM98 61h8v1h-8zM145 61h8v1h-8zM193 61h8v1h-8zM209 61h5v1h-5zM222 61h11v1h-11zM240 61h9v1h-9zM288 61h8v1h-8zM303 61h6v1h-6zM322 61h6v1h-6zM335 61h9v1h-9zM351 61h6v1h-6zM370 61h6v1h-6zM383 61h6v1h-6zM414 61h1v1h-1zM418 61h6v1h-6zM435 61h4v1h-4zM441 61h4v1h-4zM458 61h4v1h-4zM5 62h5v1h-5zM50 62h9v1h-9zM98 62h8v1h-8zM145 62h8v1h-8zM193 62h8v1h-8zM209 62h5v1h-5zM225 62h8v1h-8zM240 62h8v1h-8zM288 62h8v1h-8zM303 62h6v1h-6zM322 62h6v1h-6zM335 62h9v1h-9zM352 62h5v1h-5zM370 62h6v1h-6zM383 62h6v1h-6zM417 62h1v1h-1zM420 62h4v1h-4zM431 62h1v1h-1zM433 62h2v1h-2zM440 62h3v1h-3zM458 62h1v1h-1zM462 62h1v1h-1zM5 63h5v1h-5zM50 63h9v1h-9zM98 63h8v1h-8zM145 63h8v1h-8zM193 63h8v1h-8zM209 63h5v1h-5zM227 63h6v1h-6zM240 63h8v1h-8zM288 63h8v1h-8zM303 63h6v1h-6zM322 63h6v1h-6zM335 63h9v1h-9zM352 63h5v1h-5zM370 63h5v1h-5zM383 63h6v1h-6zM417 63h1v1h-1zM419 63h3v1h-3zM429 63h2v1h-2zM432 63h2v1h-2zM437 63h4v1h-4zM5 64h6v1h-6zM47 64h1v1h-1zM49 64h10v1h-10zM60 64h1v1h-1zM97 64h10v1h-10zM108 64h1v1h-1zM145 64h9v1h-9zM191 64h11v1h-11zM208 64h6v1h-6zM227 64h7v1h-7zM239 64h10v1h-10zM287 64h10v1h-10zM300 64h1v1h-1zM303 64h6v1h-6zM322 64h6v1h-6zM334 64h10v1h-10zM351 64h6v1h-6zM370 64h6v1h-6zM382 64h7v1h-7zM414 64h3v1h-3zM418 64h1v1h-1zM420 64h2v1h-2zM428 64h1v1h-1zM430 64h2v1h-2zM435 64h3v1h-3zM453 64h1v1h-1zM459 64h1v1h-1zM463 64h1v1h-1zM5 65h201v1h-201zM209 65h5v1h-5zM227 65h8v1h-8zM236 65h1v1h-1zM238 65h71v1h-71zM322 65h35v1h-35zM370 65h19v1h-19zM414 65h2v1h-2zM429 65h1v1h-1zM433 65h5v1h-5zM452 65h5v1h-5zM459 65h1v1h-1zM462 65h2v1h-2zM6 66h208v1h-208zM228 66h80v1h-80zM323 66h33v1h-33zM371 66h17v1h-17zM414 66h2v1h-2zM417 66h2v1h-2zM423 66h2v1h-2zM427 66h1v1h-1zM431 66h3v1h-3zM435 66h1v1h-1zM448 66h4v1h-4zM457 66h2v1h-2zM463 66h1v1h-1zM6 67h46v1h-46zM55 67h93v1h-93zM151 67h62v1h-62zM229 67h79v1h-79zM324 67h14v1h-14zM341 67h14v1h-14zM372 67h16v1h-16zM389 67h1v1h-1zM414 67h3v1h-3zM423 67h3v1h-3zM445 67h3v1h-3zM459 67h1v1h-1zM462 67h2v1h-2zM5 68h46v1h-46zM57 68h44v1h-44zM102 68h44v1h-44zM148 68h2v1h-2zM153 68h1v1h-1zM155 68h39v1h-39zM195 68h1v1h-1zM197 68h1v1h-1zM199 68h14v1h-14zM229 68h63v1h-63zM293 68h13v1h-13zM325 68h11v1h-11zM341 68h13v1h-13zM374 68h11v1h-11zM414 68h1v1h-1zM420 68h4v1h-4zM427 68h3v1h-3zM446 68h1v1h-1zM459 68h5v1h-5zM5 69h6v1h-6zM12 69h1v1h-1zM14 69h2v1h-2zM65 69h33v1h-33zM146 69h1v1h-1zM151 69h2v1h-2zM154 69h1v1h-1zM191 69h3v1h-3zM199 69h2v1h-2zM207 69h4v1h-4zM230 69h13v1h-13zM246 69h43v1h-43zM296 69h8v1h-8zM380 69h2v1h-2zM414 69h1v1h-1zM418 69h5v1h-5zM426 69h1v1h-1zM429 69h1v1h-1zM439 69h2v1h-2zM461 69h2v1h-2zM5 70h9v1h-9zM117 70h19v1h-19zM413 70h1v1h-1zM417 70h3v1h-3zM421 70h1v1h-1zM423 70h4v1h-4zM430 70h2v1h-2zM434 70h2v1h-2zM6 71h3v1h-3zM10 71h1v1h-1zM110 71h17v1h-17zM413 71h1v1h-1zM417 71h1v1h-1zM419 71h1v1h-1zM423 71h1v1h-1zM425 71h1v1h-1zM429 71h1v1h-1zM5 72h3v1h-3zM115 72h16v1h-16zM413 72h2v1h-2zM416 72h2v1h-2zM423 72h2v1h-2zM427 72h2v1h-2zM6 73h3v1h-3zM112 73h17v1h-17zM414 73h1v1h-1zM416 73h1v1h-1zM423 73h4v1h-4zM5 74h3v1h-3zM81 74h1v1h-1zM115 74h16v1h-16zM413 74h4v1h-4zM421 74h4v1h-4zM5 75h9v1h-9zM113 75h18v1h-18zM412 75h5v1h-5zM421 75h1v1h-1zM6 76h9v1h-9zM121 76h13v1h-13zM410 76h3v1h-3zM415 76h2v1h-2zM418 76h3v1h-3zM5 77h9v1h-9zM56 77h58v1h-58zM145 77h4v1h-4zM410 77h1v1h-1zM414 77h6v1h-6zM390 78h1v1h-1zM410 78h1v1h-1zM414 78h6v1h-6zM390 79h5v1h-5zM405 79h2v1h-2zM410 79h1v1h-1zM414 79h6v1h-6zM392 80h7v1h-7zM406 80h3v1h-3zM410 80h1v1h-1zM414 80h6v1h-6zM426 80h1v1h-1zM393 81h1v1h-1zM396 81h1v1h-1zM398 81h2v1h-2zM404 81h2v1h-2zM407 81h4v1h-4zM414 81h5v1h-5zM444 81h1v1h-1zM393 82h1v1h-1zM398 82h3v1h-3zM403 82h2v1h-2zM413 82h6v1h-6zM433 82h1v1h-1zM445 82h1v1h-1zM452 82h1v1h-1zM179 83h1v1h-1zM183 83h2v1h-2zM187 83h1v1h-1zM189 83h1v1h-1zM193 83h1v1h-1zM197 83h1v1h-1zM199 83h1v1h-1zM202 83h2v1h-2zM207 83h1v1h-1zM212 83h2v1h-2zM217 83h1v1h-1zM220 83h1v1h-1zM227 83h5v1h-5zM234 83h5v1h-5zM242 83h2v1h-2zM249 83h4v1h-4zM255 83h5v1h-5zM266 83h4v1h-4zM273 83h5v1h-5zM280 83h2v1h-2zM286 83h1v1h-1zM290 83h1v1h-1zM293 83h4v1h-4zM300 83h4v1h-4zM308 83h4v1h-4zM314 83h2v1h-2zM319 83h2v1h-2zM323 83h1v1h-1zM326 83h5v1h-5zM333 83h5v1h-5zM341 83h4v1h-4zM352 83h1v1h-1zM355 83h1v1h-1zM360 83h1v1h-1zM363 83h1v1h-1zM368 83h1v1h-1zM371 83h5v1h-5zM378 83h1v1h-1zM381 83h5v1h-5zM393 83h3v1h-3zM400 83h4v1h-4zM413 83h6v1h-6zM431 83h2v1h-2zM443 83h1v1h-1zM446 83h1v1h-1zM448 83h1v1h-1zM452 83h3v1h-3zM179 84h1v1h-1zM183 84h2v1h-2zM187 84h1v1h-1zM189 84h1v1h-1zM192 84h1v1h-1zM194 84h1v1h-1zM197 84h1v1h-1zM199 84h1v1h-1zM202 84h2v1h-2zM212 84h2v1h-2zM217 84h2v1h-2zM221 84h1v1h-1zM224 84h1v1h-1zM227 84h1v1h-1zM234 84h1v1h-1zM239 84h1v1h-1zM242 84h1v1h-1zM248 84h1v1h-1zM252 84h2v1h-2zM255 84h1v1h-1zM265 84h1v1h-1zM272 84h1v1h-1zM277 84h1v1h-1zM280 84h2v1h-2zM285 84h2v1h-2zM292 84h1v1h-1zM296 84h1v1h-1zM299 84h1v1h-1zM304 84h1v1h-1zM307 84h1v1h-1zM314 84h2v1h-2zM319 84h2v1h-2zM323 84h1v1h-1zM326 84h1v1h-1zM330 84h1v1h-1zM333 84h1v1h-1zM337 84h1v1h-1zM340 84h1v1h-1zM345 84h1v1h-1zM348 84h1v1h-1zM351 84h1v1h-1zM355 84h2v1h-2zM360 84h2v1h-2zM363 84h1v1h-1zM368 84h1v1h-1zM371 84h1v1h-1zM375 84h1v1h-1zM378 84h1v1h-1zM381 84h1v1h-1zM385 84h1v1h-1zM394 84h3v1h-3zM412 84h2v1h-2zM416 84h1v1h-1zM426 84h4v1h-4zM431 84h1v1h-1zM443 84h3v1h-3zM447 84h1v1h-1zM451 84h3v1h-3zM180 85h1v1h-1zM182 85h1v1h-1zM184 85h1v1h-1zM187 85h1v1h-1zM189 85h1v1h-1zM192 85h1v1h-1zM194 85h1v1h-1zM199 85h1v1h-1zM202 85h1v1h-1zM204 85h1v1h-1zM206 85h1v1h-1zM212 85h2v1h-2zM216 85h1v1h-1zM221 85h1v1h-1zM223 85h1v1h-1zM227 85h2v1h-2zM234 85h1v1h-1zM238 85h1v1h-1zM242 85h1v1h-1zM244 85h1v1h-1zM255 85h1v1h-1zM265 85h1v1h-1zM272 85h1v1h-1zM278 85h1v1h-1zM280 85h3v1h-3zM285 85h2v1h-2zM292 85h1v1h-1zM299 85h1v1h-1zM305 85h1v1h-1zM308 85h1v1h-1zM314 85h2v1h-2zM319 85h2v1h-2zM323 85h1v1h-1zM325 85h1v1h-1zM333 85h1v1h-1zM337 85h1v1h-1zM340 85h1v1h-1zM345 85h1v1h-1zM349 85h1v1h-1zM355 85h2v1h-2zM359 85h2v1h-2zM363 85h1v1h-1zM368 85h1v1h-1zM371 85h2v1h-2zM380 85h1v1h-1zM394 85h3v1h-3zM411 85h4v1h-4zM416 85h1v1h-1zM426 85h2v1h-2zM429 85h2v1h-2zM444 85h4v1h-4zM449 85h1v1h-1zM451 85h2v1h-2zM180 86h1v1h-1zM182 86h1v1h-1zM185 86h1v1h-1zM192 86h1v1h-1zM194 86h1v1h-1zM196 86h1v1h-1zM204 86h1v1h-1zM206 86h1v1h-1zM212 86h1v1h-1zM216 86h1v1h-1zM222 86h1v1h-1zM229 86h3v1h-3zM234 86h4v1h-4zM241 86h1v1h-1zM244 86h1v1h-1zM248 86h1v1h-1zM255 86h5v1h-5zM265 86h1v1h-1zM272 86h1v1h-1zM278 86h1v1h-1zM280 86h1v1h-1zM282 86h1v1h-1zM284 86h1v1h-1zM286 86h1v1h-1zM289 86h1v1h-1zM291 86h1v1h-1zM299 86h1v1h-1zM305 86h1v1h-1zM310 86h2v1h-2zM314 86h1v1h-1zM316 86h1v1h-1zM318 86h1v1h-1zM320 86h1v1h-1zM323 86h1v1h-1zM325 86h1v1h-1zM333 86h5v1h-5zM339 86h2v1h-2zM345 86h1v1h-1zM350 86h1v1h-1zM355 86h1v1h-1zM359 86h1v1h-1zM363 86h1v1h-1zM368 86h1v1h-1zM373 86h2v1h-2zM380 86h1v1h-1zM395 86h3v1h-3zM409 86h3v1h-3zM414 86h1v1h-1zM426 86h2v1h-2zM429 86h1v1h-1zM445 86h3v1h-3zM449 86h2v1h-2zM452 86h1v1h-1zM180 87h1v1h-1zM182 87h1v1h-1zM185 87h2v1h-2zM190 87h1v1h-1zM196 87h1v1h-1zM200 87h2v1h-2zM204 87h3v1h-3zM212 87h1v1h-1zM214 87h1v1h-1zM218 87h1v1h-1zM222 87h1v1h-1zM231 87h1v1h-1zM234 87h1v1h-1zM241 87h5v1h-5zM248 87h1v1h-1zM253 87h1v1h-1zM255 87h1v1h-1zM265 87h1v1h-1zM270 87h1v1h-1zM272 87h1v1h-1zM278 87h1v1h-1zM280 87h1v1h-1zM282 87h1v1h-1zM284 87h1v1h-1zM286 87h1v1h-1zM289 87h1v1h-1zM292 87h1v1h-1zM297 87h1v1h-1zM299 87h1v1h-1zM305 87h1v1h-1zM314 87h1v1h-1zM316 87h1v1h-1zM318 87h1v1h-1zM320 87h1v1h-1zM323 87h1v1h-1zM325 87h1v1h-1zM333 87h1v1h-1zM337 87h1v1h-1zM340 87h1v1h-1zM345 87h1v1h-1zM350 87h1v1h-1zM355 87h1v1h-1zM357 87h1v1h-1zM361 87h1v1h-1zM363 87h1v1h-1zM368 87h1v1h-1zM375 87h1v1h-1zM397 87h3v1h-3zM406 87h3v1h-3zM426 87h1v1h-1zM429 87h2v1h-2zM442 87h5v1h-5zM448 87h2v1h-2zM451 87h2v1h-2zM180 88h2v1h-2zM185 88h2v1h-2zM190 88h2v1h-2zM195 88h2v1h-2zM200 88h2v1h-2zM205 88h1v1h-1zM212 88h1v1h-1zM214 88h2v1h-2zM222 88h1v1h-1zM227 88h1v1h-1zM231 88h1v1h-1zM234 88h1v1h-1zM245 88h1v1h-1zM248 88h2v1h-2zM252 88h1v1h-1zM255 88h1v1h-1zM265 88h1v1h-1zM269 88h1v1h-1zM273 88h1v1h-1zM277 88h1v1h-1zM280 88h1v1h-1zM283 88h1v1h-1zM286 88h1v1h-1zM292 88h2v1h-2zM296 88h1v1h-1zM300 88h1v1h-1zM303 88h2v1h-2zM307 88h2v1h-2zM311 88h1v1h-1zM314 88h1v1h-1zM316 88h2v1h-2zM320 88h1v1h-1zM323 88h1v1h-1zM326 88h1v1h-1zM330 88h1v1h-1zM333 88h1v1h-1zM337 88h1v1h-1zM340 88h2v1h-2zM344 88h2v1h-2zM350 88h1v1h-1zM355 88h1v1h-1zM357 88h2v1h-2zM360 88h2v1h-2zM364 88h1v1h-1zM367 88h2v1h-2zM371 88h1v1h-1zM375 88h1v1h-1zM381 88h1v1h-1zM385 88h1v1h-1zM399 88h11v1h-11zM425 88h6v1h-6zM434 88h1v1h-1zM442 88h2v1h-2zM445 88h4v1h-4zM452 88h2v1h-2zM181 89h1v1h-1zM191 89h1v1h-1zM195 89h1v1h-1zM205 89h1v1h-1zM212 89h1v1h-1zM222 89h1v1h-1zM229 89h2v1h-2zM234 89h1v1h-1zM240 89h1v1h-1zM250 89h2v1h-2zM255 89h5v1h-5zM262 89h1v1h-1zM266 89h3v1h-3zM274 89h3v1h-3zM280 89h1v1h-1zM283 89h1v1h-1zM286 89h1v1h-1zM288 89h1v1h-1zM293 89h3v1h-3zM301 89h3v1h-3zM308 89h3v1h-3zM314 89h1v1h-1zM317 89h1v1h-1zM320 89h1v1h-1zM323 89h1v1h-1zM327 89h3v1h-3zM333 89h4v1h-4zM342 89h2v1h-2zM355 89h1v1h-1zM365 89h2v1h-2zM372 89h3v1h-3zM382 89h3v1h-3zM434 89h1v1h-1zM442 89h3v1h-3zM447 89h2v1h-2zM441 90h1v1h-1zM443 90h2v1h-2zM441 91h1v1h-1zM421 93h1v1h-1zM456 97h1v1h-1zM451 98h1v1h-1zM454 98h1v1h-1zM450 99h1v1h-1zM452 99h1v1h-1zM449 100h1v1h-1zM451 100h1v1h-1zM453 100h1v1h-1zM447 101h1v1h-1zM418 102h8v1h-8zM427 102h2v1h-2zM431 102h2v1h-2zM445 102h1v1h-1zM447 102h2v1h-2zM418 103h5v1h-5zM424 103h1v1h-1zM437 103h4v1h-4zM443 103h1v1h-1z"/><path fill="#011930" d="M218 2h1v1h-1zM231 2h1v1h-1zM218 3h1v1h-1zM231 3h1v1h-1zM231 5h1v1h-1zM221 7h8v1h-8zM207 14h1v1h-1zM148 67h3v1h-3zM101 68h1v1h-1zM146 68h2v1h-2zM150 68h3v1h-3zM154 68h1v1h-1zM194 68h1v1h-1zM198 68h1v1h-1zM98 69h48v1h-48zM153 69h1v1h-1zM155 69h36v1h-36zM201 69h6v1h-6zM87 70h30v1h-30zM87 71h23v1h-23zM88 72h27v1h-27zM86 73h26v1h-26zM88 74h27v1h-27zM86 75h27v1h-27zM85 76h36v1h-36z"/><path fill="#15c685" d="M220 0h10v1h-10zM240 0h9v1h-9zM220 1h10v1h-10zM240 1h9v1h-9zM220 2h10v1h-10zM240 2h9v1h-9zM220 3h10v1h-10zM240 3h9v1h-9zM220 4h10v1h-10zM240 4h9v1h-9zM220 5h10v1h-10zM240 5h9v1h-9zM241 6h7v1h-7zM210 26h8v1h-8zM210 27h8v1h-8zM210 28h8v1h-8zM210 29h8v1h-8zM210 30h8v1h-8zM210 31h8v1h-8zM210 32h8v1h-8zM211 33h7v1h-7zM215 68h9v1h-9zM148 69h3v1h-3zM195 69h4v1h-4zM211 69h19v1h-19zM136 70h98v1h-98zM127 71h111v1h-111zM131 72h117v1h-117zM129 73h119v1h-119zM131 74h116v1h-116zM131 75h115v1h-115zM134 76h108v1h-108zM137 77h8v1h-8zM150 77h87v1h-87z"/><path fill="#3b1632" d="M422 9h1v1h-1zM427 9h2v1h-2zM435 13h1v1h-1zM420 14h1v1h-1zM431 14h1v1h-1zM431 15h1v1h-1zM231 16h1v1h-1zM218 17h1v1h-1zM231 17h1v1h-1zM218 18h1v1h-1zM231 18h1v1h-1zM231 19h1v1h-1zM219 20h1v1h-1zM230 20h1v1h-1zM206 24h1v1h-1zM427 26h1v1h-1zM428 27h1v1h-1zM427 30h1v1h-1zM233 31h1v1h-1zM429 31h1v1h-1zM234 32h7v1h-7zM421 32h1v1h-1zM430 32h1v1h-1zM432 32h1v1h-1zM444 32h1v1h-1zM241 33h1v1h-1zM421 33h1v1h-1zM221 34h1v1h-1zM224 34h3v1h-3zM241 34h1v1h-1zM420 34h1v1h-1zM423 34h1v1h-1zM231 35h1v1h-1zM231 36h1v1h-1zM231 37h1v1h-1zM231 38h1v1h-1zM231 39h1v1h-1zM241 40h1v1h-1zM241 41h1v1h-1zM452 41h1v1h-1zM241 42h1v1h-1zM422 42h1v1h-1zM200 43h1v1h-1zM450 43h2v1h-2zM200 44h1v1h-1zM451 44h1v1h-1zM200 45h1v1h-1zM436 45h1v1h-1zM200 46h1v1h-1zM436 46h1v1h-1zM200 47h1v1h-1zM200 48h1v1h-1zM420 50h1v1h-1zM420 51h1v1h-1zM420 52h1v1h-1zM420 55h1v1h-1zM206 65h3v1h-3zM235 65h1v1h-1zM237 65h1v1h-1zM52 67h3v1h-3zM338 67h1v1h-1zM340 67h1v1h-1zM51 68h2v1h-2zM55 68h2v1h-2zM336 68h1v1h-1zM354 68h1v1h-1zM372 68h2v1h-2zM385 68h1v1h-1zM11 69h1v1h-1zM13 69h1v1h-1zM16 69h34v1h-34zM58 69h7v1h-7zM328 69h7v1h-7zM343 69h9v1h-9zM375 69h5v1h-5zM382 69h1v1h-1zM384 69h1v1h-1zM75 70h12v1h-12zM80 71h7v1h-7zM80 72h8v1h-8zM78 73h8v1h-8zM82 74h6v1h-6zM78 75h8v1h-8zM76 76h9v1h-9zM428 82h2v1h-2zM444 82h1v1h-1zM428 83h1v1h-1z"/><path fill="#5a856f" d="M230 0h1v1h-1zM230 1h1v1h-1zM249 1h1v1h-1zM219 2h1v1h-1zM230 2h1v1h-1zM230 3h1v1h-1zM249 3h1v1h-1zM230 4h1v1h-1zM249 4h1v1h-1zM230 5h1v1h-1zM249 5h1v1h-1zM220 6h2v1h-2zM229 6h2v1h-2zM239 6h2v1h-2zM248 6h2v1h-2zM220 7h1v1h-1zM249 7h1v1h-1zM220 8h1v1h-1zM240 8h1v1h-1zM220 12h1v1h-1zM210 25h4v1h-4zM218 25h1v1h-1zM210 33h1v1h-1zM218 33h1v1h-1zM450 50h1v1h-1zM450 51h1v1h-1zM448 52h2v1h-2zM448 53h1v1h-1zM443 57h1v1h-1zM459 57h1v1h-1zM438 58h1v1h-1zM440 58h2v1h-2zM448 58h1v1h-1zM453 58h2v1h-2zM460 58h1v1h-1zM429 59h1v1h-1zM431 59h4v1h-4zM436 59h4v1h-4zM449 59h1v1h-1zM451 59h2v1h-2zM459 59h1v1h-1zM426 60h10v1h-10zM447 60h3v1h-3zM458 60h2v1h-2zM425 61h10v1h-10zM445 61h6v1h-6zM457 61h1v1h-1zM426 62h3v1h-3zM430 62h1v1h-1zM432 62h1v1h-1zM435 62h1v1h-1zM439 62h1v1h-1zM443 62h6v1h-6zM460 62h2v1h-2zM423 63h2v1h-2zM428 63h1v1h-1zM431 63h1v1h-1zM441 63h2v1h-2zM444 63h1v1h-1zM458 63h2v1h-2zM461 63h2v1h-2zM423 64h2v1h-2zM429 64h1v1h-1zM438 64h2v1h-2zM442 64h2v1h-2zM454 64h1v1h-1zM461 64h2v1h-2zM423 65h2v1h-2zM427 65h2v1h-2zM461 65h1v1h-1zM425 66h2v1h-2zM434 66h1v1h-1zM459 66h4v1h-4zM228 67h1v1h-1zM430 67h4v1h-4zM444 67h1v1h-1zM460 67h2v1h-2zM196 68h1v1h-1zM213 68h2v1h-2zM224 68h5v1h-5zM430 68h1v1h-1zM1 69h4v1h-4zM147 69h1v1h-1zM194 69h1v1h-1zM243 69h3v1h-3zM427 69h2v1h-2zM432 69h3v1h-3zM438 69h1v1h-1zM0 70h5v1h-5zM234 70h19v1h-19zM427 70h1v1h-1zM0 71h6v1h-6zM238 71h13v1h-13zM424 71h1v1h-1zM0 72h5v1h-5zM248 72h1v1h-1zM0 73h6v1h-6zM248 73h4v1h-4zM0 74h5v1h-5zM247 74h3v1h-3zM0 75h5v1h-5zM246 75h5v1h-5zM0 76h6v1h-6zM242 76h12v1h-12zM114 77h23v1h-23zM456 98h2v1h-2zM455 99h1v1h-1zM454 100h1v1h-1zM451 101h1v1h-1zM429 102h2v1h-2zM449 102h2v1h-2zM423 103h1v1h-1zM425 103h3v1h-3zM444 103h1v1h-1zM446 103h2v1h-2z"/><path fill="#72433c" d="M199 5h1v1h-1zM191 6h1v1h-1zM193 6h2v1h-2zM196 6h2v1h-2zM201 7h1v1h-1zM190 9h1v1h-1zM420 9h2v1h-2zM423 9h4v1h-4zM429 9h4v1h-4zM420 10h1v1h-1zM424 10h4v1h-4zM430 10h4v1h-4zM419 11h1v1h-1zM425 11h2v1h-2zM432 11h3v1h-3zM190 12h1v1h-1zM419 12h1v1h-1zM433 12h3v1h-3zM190 13h1v1h-1zM432 13h3v1h-3zM430 14h1v1h-1zM432 14h2v1h-2zM201 15h1v1h-1zM420 15h1v1h-1zM430 15h1v1h-1zM191 16h8v1h-8zM421 16h1v1h-1zM190 17h1v1h-1zM429 25h1v1h-1zM432 25h1v1h-1zM434 25h2v1h-2zM443 25h2v1h-2zM422 26h5v1h-5zM428 26h6v1h-6zM439 26h1v1h-1zM442 26h4v1h-4zM422 27h1v1h-1zM424 27h2v1h-2zM427 27h1v1h-1zM430 27h2v1h-2zM433 27h1v1h-1zM435 27h2v1h-2zM422 28h1v1h-1zM424 28h2v1h-2zM427 28h1v1h-1zM429 28h1v1h-1zM431 28h3v1h-3zM438 28h2v1h-2zM442 28h5v1h-5zM416 29h3v1h-3zM421 29h2v1h-2zM428 29h2v1h-2zM433 29h1v1h-1zM436 29h1v1h-1zM440 29h1v1h-1zM442 29h1v1h-1zM447 29h1v1h-1zM414 30h1v1h-1zM417 30h5v1h-5zM428 30h1v1h-1zM439 30h3v1h-3zM446 30h2v1h-2zM449 30h1v1h-1zM417 31h5v1h-5zM437 31h1v1h-1zM440 31h1v1h-1zM443 31h1v1h-1zM445 31h1v1h-1zM449 31h1v1h-1zM418 32h3v1h-3zM429 32h1v1h-1zM434 32h10v1h-10zM445 32h1v1h-1zM448 32h3v1h-3zM415 33h2v1h-2zM419 33h1v1h-1zM425 33h1v1h-1zM438 33h2v1h-2zM444 33h1v1h-1zM446 33h5v1h-5zM415 34h1v1h-1zM418 34h2v1h-2zM435 34h1v1h-1zM444 34h6v1h-6zM459 34h1v1h-1zM461 34h1v1h-1zM417 35h1v1h-1zM420 35h1v1h-1zM422 35h1v1h-1zM436 35h1v1h-1zM444 35h1v1h-1zM446 35h3v1h-3zM450 35h4v1h-4zM458 35h1v1h-1zM461 35h1v1h-1zM415 36h5v1h-5zM433 36h1v1h-1zM444 36h1v1h-1zM447 36h2v1h-2zM450 36h1v1h-1zM452 36h2v1h-2zM455 36h1v1h-1zM415 37h1v1h-1zM444 37h2v1h-2zM447 37h5v1h-5zM454 37h3v1h-3zM458 37h1v1h-1zM461 37h1v1h-1zM415 38h1v1h-1zM417 38h1v1h-1zM425 38h1v1h-1zM438 38h1v1h-1zM445 38h1v1h-1zM447 38h1v1h-1zM450 38h1v1h-1zM454 38h3v1h-3zM458 38h1v1h-1zM460 38h1v1h-1zM464 38h1v1h-1zM417 39h1v1h-1zM426 39h1v1h-1zM445 39h3v1h-3zM450 39h1v1h-1zM454 39h2v1h-2zM460 39h1v1h-1zM415 40h1v1h-1zM417 40h1v1h-1zM450 40h6v1h-6zM457 40h1v1h-1zM460 40h1v1h-1zM463 40h1v1h-1zM416 41h2v1h-2zM421 41h1v1h-1zM425 41h1v1h-1zM450 41h1v1h-1zM453 41h1v1h-1zM455 41h1v1h-1zM460 41h1v1h-1zM415 42h3v1h-3zM421 42h1v1h-1zM438 42h1v1h-1zM450 42h4v1h-4zM461 42h1v1h-1zM201 43h1v1h-1zM418 43h1v1h-1zM437 43h2v1h-2zM452 43h3v1h-3zM456 43h1v1h-1zM458 43h2v1h-2zM461 43h1v1h-1zM415 44h1v1h-1zM418 44h1v1h-1zM436 44h1v1h-1zM452 44h5v1h-5zM458 44h1v1h-1zM460 44h1v1h-1zM415 45h1v1h-1zM419 45h1v1h-1zM451 45h2v1h-2zM454 45h2v1h-2zM457 45h1v1h-1zM459 45h2v1h-2zM417 46h1v1h-1zM419 46h1v1h-1zM437 46h1v1h-1zM452 46h1v1h-1zM454 46h1v1h-1zM457 46h1v1h-1zM460 46h1v1h-1zM419 47h1v1h-1zM425 47h3v1h-3zM435 47h1v1h-1zM448 47h1v1h-1zM451 47h1v1h-1zM455 47h1v1h-1zM201 48h1v1h-1zM420 48h1v1h-1zM429 48h1v1h-1zM432 48h2v1h-2zM417 49h1v1h-1zM420 49h1v1h-1zM429 49h1v1h-1zM442 49h1v1h-1zM209 50h1v1h-1zM417 50h2v1h-2zM442 50h1v1h-1zM430 51h1v1h-1zM419 53h1v1h-1zM417 54h1v1h-1zM425 54h1v1h-1zM439 54h2v1h-2zM424 55h3v1h-3zM438 55h1v1h-1zM420 56h1v1h-1zM426 56h1v1h-1zM428 56h2v1h-2zM437 56h1v1h-1zM421 57h1v1h-1zM419 58h1v1h-1zM422 58h1v1h-1zM421 59h1v1h-1zM421 60h1v1h-1zM417 61h1v1h-1zM418 62h2v1h-2zM416 63h1v1h-1zM418 63h1v1h-1zM417 64h1v1h-1zM419 64h1v1h-1zM456 66h1v1h-1zM323 67h1v1h-1zM339 67h1v1h-1zM355 67h1v1h-1zM371 67h1v1h-1zM448 67h1v1h-1zM457 67h2v1h-2zM292 68h1v1h-1zM306 68h1v1h-1zM324 68h1v1h-1zM337 68h2v1h-2zM340 68h1v1h-1zM355 68h1v1h-1zM386 68h2v1h-2zM389 68h1v1h-1zM445 68h1v1h-1zM447 68h1v1h-1zM294 69h2v1h-2zM304 69h1v1h-1zM326 69h2v1h-2zM335 69h2v1h-2zM341 69h2v1h-2zM352 69h2v1h-2zM383 69h1v1h-1zM385 69h4v1h-4zM443 69h1v1h-1zM382 70h2v1h-2zM387 70h1v1h-1zM390 70h1v1h-1zM432 70h2v1h-2zM436 70h3v1h-3zM441 70h2v1h-2zM430 71h1v1h-1zM435 71h2v1h-2zM389 72h1v1h-1zM429 72h1v1h-1zM389 73h1v1h-1zM427 73h1v1h-1zM387 76h3v1h-3zM424 77h1v1h-1zM425 79h1v1h-1zM430 79h1v1h-1zM449 79h1v1h-1zM452 79h1v1h-1zM405 80h1v1h-1zM427 80h4v1h-4zM445 80h5v1h-5zM453 80h1v1h-1zM429 81h2v1h-2zM434 81h1v1h-1zM445 81h10v1h-10zM430 82h1v1h-1zM434 82h1v1h-1zM442 82h2v1h-2zM446 82h1v1h-1zM449 82h3v1h-3zM453 82h2v1h-2zM427 83h1v1h-1zM430 83h1v1h-1zM434 83h1v1h-1zM444 83h2v1h-2zM449 83h3v1h-3zM430 84h1v1h-1zM448 84h3v1h-3zM428 85h1v1h-1zM442 85h1v1h-1zM448 85h1v1h-1zM450 85h1v1h-1zM428 86h1v1h-1zM430 86h1v1h-1zM442 86h1v1h-1zM448 86h1v1h-1zM451 86h1v1h-1zM427 87h2v1h-2zM447 87h1v1h-1zM450 87h1v1h-1zM444 88h1v1h-1zM449 88h1v1h-1zM451 88h1v1h-1zM426 89h1v1h-1zM446 89h1v1h-1zM451 89h1v1h-1zM433 90h1v1h-1zM445 90h2v1h-2zM451 90h1v1h-1zM434 92h1v1h-1zM436 94h1v1h-1zM454 96h1v1h-1zM452 97h4v1h-4zM452 98h2v1h-2zM451 99h1v1h-1zM431 100h1v1h-1zM427 101h4v1h-4zM432 101h1v1h-1zM448 101h1v1h-1zM450 101h1v1h-1zM426 102h1v1h-1zM433 102h2v1h-2zM442 102h3v1h-3zM446 102h1v1h-1zM436 103h1v1h-1z"/><path fill="#82175a" d="M428 10h2v1h-2zM424 11h1v1h-1zM430 11h2v1h-2zM431 12h2v1h-2zM431 13h1v1h-1zM221 14h9v1h-9zM421 15h1v1h-1zM218 16h2v1h-2zM230 16h1v1h-1zM422 16h1v1h-1zM219 17h1v1h-1zM230 17h1v1h-1zM423 17h1v1h-1zM426 17h2v1h-2zM219 18h1v1h-1zM230 18h1v1h-1zM219 19h2v1h-2zM230 19h1v1h-1zM220 20h10v1h-10zM233 32h1v1h-1zM233 33h8v1h-8zM232 34h1v1h-1zM240 34h1v1h-1zM232 35h1v1h-1zM240 35h2v1h-2zM232 36h1v1h-1zM241 36h1v1h-1zM232 37h1v1h-1zM241 37h1v1h-1zM232 38h1v1h-1zM241 38h1v1h-1zM232 39h1v1h-1zM241 39h1v1h-1zM232 40h1v1h-1zM53 68h2v1h-2zM371 68h1v1h-1zM50 69h8v1h-8zM373 69h2v1h-2zM46 70h6v1h-6zM53 70h22v1h-22zM56 71h24v1h-24zM57 72h23v1h-23zM57 73h21v1h-21zM57 74h24v1h-24zM55 75h23v1h-23zM15 76h3v1h-3zM54 76h22v1h-22z"/><path fill="#8bf382" d="M209 26h1v1h-1zM218 26h1v1h-1zM209 27h1v1h-1zM218 27h1v1h-1zM209 28h1v1h-1zM218 28h1v1h-1zM209 29h1v1h-1zM218 29h1v1h-1zM209 30h1v1h-1zM218 30h1v1h-1zM209 31h1v1h-1zM218 31h1v1h-1zM209 32h1v1h-1zM218 32h2v1h-2zM445 52h1v1h-1zM447 52h1v1h-1zM444 54h1v1h-1zM444 55h1v1h-1zM453 60h1v1h-1zM452 61h1v1h-1zM259 71h9v1h-9zM258 72h11v1h-11zM259 73h11v1h-11zM256 74h14v1h-14zM260 75h10v1h-10zM262 76h1v1h-1zM264 76h8v1h-8zM254 77h12v1h-12zM459 96h1v1h-1zM459 97h1v1h-1zM458 98h1v1h-1zM457 99h2v1h-2zM453 102h1v1h-1zM451 103h1v1h-1z"/><path fill="#8ebd7d" d="M240 7h1v1h-1zM208 25h2v1h-2zM209 33h1v1h-1zM219 33h1v1h-1zM447 49h2v1h-2zM450 49h1v1h-1zM446 50h3v1h-3zM451 50h1v1h-1zM445 51h5v1h-5zM451 51h1v1h-1zM446 52h1v1h-1zM445 53h3v1h-3zM445 54h4v1h-4zM445 55h2v1h-2zM441 56h2v1h-2zM438 57h1v1h-1zM440 57h3v1h-3zM425 58h1v1h-1zM428 58h2v1h-2zM439 58h1v1h-1zM452 58h1v1h-1zM455 58h1v1h-1zM424 59h5v1h-5zM430 59h1v1h-1zM453 59h4v1h-4zM424 60h2v1h-2zM450 60h3v1h-3zM454 60h3v1h-3zM424 61h1v1h-1zM451 61h1v1h-1zM453 61h4v1h-4zM424 62h2v1h-2zM429 62h1v1h-1zM449 62h9v1h-9zM459 62h1v1h-1zM425 63h3v1h-3zM443 63h1v1h-1zM445 63h13v1h-13zM460 63h1v1h-1zM425 64h3v1h-3zM440 64h2v1h-2zM444 64h9v1h-9zM455 64h2v1h-2zM458 64h1v1h-1zM460 64h1v1h-1zM426 65h1v1h-1zM439 65h11v1h-11zM451 65h1v1h-1zM460 65h1v1h-1zM436 66h12v1h-12zM213 67h1v1h-1zM434 67h10v1h-10zM0 68h5v1h-5zM431 68h13v1h-13zM0 69h1v1h-1zM430 69h2v1h-2zM435 69h3v1h-3zM253 70h17v1h-17zM428 70h2v1h-2zM251 71h8v1h-8zM426 71h3v1h-3zM249 72h9v1h-9zM426 72h1v1h-1zM252 73h7v1h-7zM250 74h6v1h-6zM251 75h9v1h-9zM254 76h8v1h-8zM263 76h1v1h-1zM0 77h5v1h-5zM237 77h17v1h-17zM458 95h1v1h-1zM457 96h2v1h-2zM457 97h2v1h-2zM455 98h1v1h-1zM453 99h2v1h-2zM456 99h1v1h-1zM452 100h1v1h-1zM455 100h1v1h-1zM452 101h3v1h-3zM451 102h2v1h-2zM428 103h3v1h-3zM434 103h2v1h-2zM445 103h1v1h-1zM448 103h3v1h-3z"/><path fill="#b68c6d" d="M422 8h4v1h-4zM427 8h1v1h-1zM430 8h2v1h-2zM433 9h1v1h-1zM419 14h1v1h-1zM419 15h1v1h-1zM432 15h1v1h-1zM199 16h1v1h-1zM422 18h1v1h-1zM427 18h1v1h-1zM429 18h1v1h-1zM418 28h1v1h-1zM419 29h1v1h-1zM443 29h2v1h-2zM429 30h1v1h-1zM435 30h1v1h-1zM431 31h1v1h-1zM439 31h1v1h-1zM426 32h1v1h-1zM429 33h2v1h-2zM437 33h1v1h-1zM441 33h1v1h-1zM443 33h1v1h-1zM432 34h2v1h-2zM436 34h1v1h-1zM443 34h1v1h-1zM432 35h4v1h-4zM437 35h1v1h-1zM421 36h1v1h-1zM424 36h2v1h-2zM423 37h2v1h-2zM426 37h1v1h-1zM443 37h1v1h-1zM452 37h1v1h-1zM422 38h1v1h-1zM427 38h1v1h-1zM448 38h2v1h-2zM457 38h1v1h-1zM421 39h1v1h-1zM427 39h1v1h-1zM437 39h3v1h-3zM444 39h1v1h-1zM448 39h1v1h-1zM451 39h1v1h-1zM457 39h1v1h-1zM426 40h3v1h-3zM445 40h1v1h-1zM447 40h2v1h-2zM456 40h1v1h-1zM201 41h2v1h-2zM208 41h2v1h-2zM220 41h2v1h-2zM226 41h1v1h-1zM427 41h1v1h-1zM429 41h1v1h-1zM432 41h1v1h-1zM448 41h2v1h-2zM456 41h1v1h-1zM209 42h1v1h-1zM418 42h1v1h-1zM420 42h1v1h-1zM425 42h1v1h-1zM428 42h1v1h-1zM431 42h1v1h-1zM433 42h1v1h-1zM440 42h1v1h-1zM449 42h1v1h-1zM455 42h1v1h-1zM420 43h2v1h-2zM428 43h1v1h-1zM439 43h2v1h-2zM447 43h1v1h-1zM455 43h1v1h-1zM421 44h1v1h-1zM430 44h3v1h-3zM443 44h1v1h-1zM447 44h2v1h-2zM421 45h1v1h-1zM418 46h1v1h-1zM420 46h3v1h-3zM424 46h1v1h-1zM427 46h1v1h-1zM435 46h1v1h-1zM446 46h1v1h-1zM449 46h1v1h-1zM424 47h1v1h-1zM434 47h1v1h-1zM446 47h1v1h-1zM427 48h1v1h-1zM430 48h1v1h-1zM442 48h3v1h-3zM210 49h1v1h-1zM219 49h1v1h-1zM419 49h1v1h-1zM421 49h1v1h-1zM428 49h1v1h-1zM431 49h1v1h-1zM433 49h1v1h-1zM437 49h1v1h-1zM441 49h1v1h-1zM201 50h1v1h-1zM208 50h1v1h-1zM419 50h1v1h-1zM421 50h1v1h-1zM429 50h1v1h-1zM432 50h2v1h-2zM436 50h1v1h-1zM441 50h1v1h-1zM421 51h1v1h-1zM431 51h1v1h-1zM441 51h1v1h-1zM421 52h1v1h-1zM432 52h1v1h-1zM438 52h1v1h-1zM441 52h1v1h-1zM412 53h1v1h-1zM421 53h1v1h-1zM435 53h1v1h-1zM438 53h1v1h-1zM440 53h1v1h-1zM421 54h1v1h-1zM424 54h1v1h-1zM432 54h1v1h-1zM421 55h3v1h-3zM428 55h2v1h-2zM422 56h1v1h-1zM430 56h1v1h-1zM421 58h1v1h-1zM420 59h1v1h-1zM417 60h1v1h-1zM414 62h1v1h-1zM416 62h1v1h-1zM414 63h1v1h-1zM389 66h1v1h-1zM452 66h1v1h-1zM449 67h1v1h-1zM444 68h1v1h-1zM413 69h1v1h-1zM459 69h2v1h-2zM461 70h2v1h-2zM9 71h1v1h-1zM11 71h1v1h-1zM462 71h1v1h-1zM8 72h6v1h-6zM462 72h1v1h-1zM9 73h1v1h-1zM15 73h1v1h-1zM391 73h1v1h-1zM462 73h1v1h-1zM8 74h6v1h-6zM425 74h1v1h-1zM462 74h1v1h-1zM14 75h3v1h-3zM425 75h1v1h-1zM462 75h1v1h-1zM390 76h1v1h-1zM462 76h1v1h-1zM462 77h1v1h-1zM424 78h1v1h-1zM462 78h1v1h-1zM398 79h1v1h-1zM426 79h1v1h-1zM462 79h1v1h-1zM460 80h2v1h-2zM455 81h4v1h-4zM447 82h1v1h-1zM429 83h1v1h-1zM437 83h1v1h-1zM447 83h1v1h-1zM432 84h1v1h-1zM435 84h2v1h-2zM446 84h1v1h-1zM443 85h1v1h-1zM431 87h3v1h-3zM454 88h1v1h-1zM424 89h2v1h-2zM428 89h1v1h-1zM445 89h1v1h-1zM454 89h1v1h-1zM434 90h1v1h-1zM442 90h1v1h-1zM454 90h1v1h-1zM434 91h1v1h-1zM422 93h1v1h-1zM435 93h2v1h-2zM437 94h1v1h-1zM449 101h1v1h-1z"/><path fill="#be7151" d="M190 8h1v1h-1zM200 8h1v1h-1zM428 8h2v1h-2zM200 9h1v1h-1zM190 10h1v1h-1zM200 10h1v1h-1zM419 10h1v1h-1zM434 10h1v1h-1zM190 11h1v1h-1zM200 11h1v1h-1zM435 11h1v1h-1zM200 12h1v1h-1zM200 13h1v1h-1zM419 13h1v1h-1zM190 14h1v1h-1zM200 14h1v1h-1zM190 16h1v1h-1zM430 16h1v1h-1zM422 17h1v1h-1zM429 17h1v1h-1zM421 28h1v1h-1zM420 29h1v1h-1zM444 30h1v1h-1zM427 31h1v1h-1zM428 32h1v1h-1zM431 33h1v1h-1zM440 33h1v1h-1zM424 34h1v1h-1zM420 36h1v1h-1zM419 37h1v1h-1zM432 37h1v1h-1zM438 37h1v1h-1zM432 38h1v1h-1zM439 38h1v1h-1zM432 39h1v1h-1zM449 39h1v1h-1zM421 40h1v1h-1zM430 40h1v1h-1zM446 40h1v1h-1zM449 40h1v1h-1zM204 41h1v1h-1zM207 41h1v1h-1zM222 41h4v1h-4zM426 41h1v1h-1zM201 42h2v1h-2zM432 42h1v1h-1zM439 42h1v1h-1zM448 42h1v1h-1zM429 43h1v1h-1zM448 43h2v1h-2zM450 44h1v1h-1zM425 46h1v1h-1zM447 46h1v1h-1zM420 47h1v1h-1zM437 47h1v1h-1zM431 48h1v1h-1zM436 48h1v1h-1zM201 49h2v1h-2zM209 49h1v1h-1zM220 49h4v1h-4zM430 49h1v1h-1zM432 49h1v1h-1zM435 49h1v1h-1zM443 49h2v1h-2zM224 50h1v1h-1zM430 50h2v1h-2zM437 50h1v1h-1zM432 53h3v1h-3zM439 53h1v1h-1zM426 54h1v1h-1zM433 54h2v1h-2zM438 54h1v1h-1zM437 55h1v1h-1zM431 56h1v1h-1zM436 56h1v1h-1zM432 57h4v1h-4zM455 66h1v1h-1zM456 67h1v1h-1zM323 68h1v1h-1zM339 68h1v1h-1zM356 68h1v1h-1zM388 68h1v1h-1zM448 68h1v1h-1zM457 68h2v1h-2zM289 69h1v1h-1zM293 69h1v1h-1zM305 69h1v1h-1zM325 69h1v1h-1zM337 69h4v1h-4zM389 69h2v1h-2zM441 69h2v1h-2zM444 69h1v1h-1zM447 69h1v1h-1zM14 70h4v1h-4zM326 70h20v1h-20zM385 70h2v1h-2zM388 70h2v1h-2zM439 70h2v1h-2zM443 70h1v1h-1zM458 70h1v1h-1zM460 70h1v1h-1zM12 71h3v1h-3zM333 71h5v1h-5zM387 71h5v1h-5zM431 71h1v1h-1zM434 71h1v1h-1zM437 71h1v1h-1zM441 71h2v1h-2zM458 71h1v1h-1zM460 71h2v1h-2zM14 72h1v1h-1zM332 72h7v1h-7zM388 72h1v1h-1zM390 72h2v1h-2zM436 72h2v1h-2zM444 72h3v1h-3zM458 72h1v1h-1zM460 72h2v1h-2zM10 73h5v1h-5zM330 73h9v1h-9zM388 73h1v1h-1zM390 73h1v1h-1zM428 73h1v1h-1zM433 73h1v1h-1zM439 73h3v1h-3zM443 73h5v1h-5zM458 73h1v1h-1zM461 73h1v1h-1zM14 74h2v1h-2zM332 74h8v1h-8zM388 74h3v1h-3zM427 74h5v1h-5zM434 74h10v1h-10zM446 74h3v1h-3zM458 74h1v1h-1zM461 74h1v1h-1zM329 75h11v1h-11zM388 75h3v1h-3zM424 75h1v1h-1zM432 75h2v1h-2zM436 75h4v1h-4zM441 75h2v1h-2zM445 75h1v1h-1zM458 75h2v1h-2zM461 75h1v1h-1zM329 76h9v1h-9zM424 76h1v1h-1zM430 76h1v1h-1zM433 76h3v1h-3zM458 76h2v1h-2zM461 76h1v1h-1zM344 77h3v1h-3zM378 77h12v1h-12zM425 78h1v1h-1zM429 78h2v1h-2zM434 78h1v1h-1zM438 78h1v1h-1zM451 78h2v1h-2zM458 78h2v1h-2zM427 79h1v1h-1zM429 79h1v1h-1zM433 79h1v1h-1zM436 79h1v1h-1zM443 79h1v1h-1zM453 79h1v1h-1zM455 79h2v1h-2zM458 79h4v1h-4zM433 80h2v1h-2zM444 80h1v1h-1zM450 80h3v1h-3zM454 80h6v1h-6zM433 81h1v1h-1zM439 81h2v1h-2zM431 82h2v1h-2zM438 82h1v1h-1zM440 82h2v1h-2zM448 82h1v1h-1zM433 83h1v1h-1zM435 83h2v1h-2zM427 89h1v1h-1zM433 89h1v1h-1zM453 89h1v1h-1zM432 90h1v1h-1zM447 90h1v1h-1zM424 91h2v1h-2zM449 91h1v1h-1zM454 91h1v1h-1zM442 92h1v1h-1zM446 92h1v1h-1zM452 92h1v1h-1zM454 92h1v1h-1zM423 93h1v1h-1zM442 93h1v1h-1zM435 94h1v1h-1zM433 95h1v1h-1zM441 95h2v1h-2zM431 97h1v1h-1zM430 100h1v1h-1zM448 100h1v1h-1zM426 101h1v1h-1zM431 101h1v1h-1zM446 101h1v1h-1zM435 102h1v1h-1zM441 102h1v1h-1z"/><path fill="#d69c5c" d="M199 6h1v1h-1zM190 7h1v1h-1zM192 7h1v1h-1zM195 7h1v1h-1zM197 7h2v1h-2zM200 7h1v1h-1zM427 12h1v1h-1zM429 12h1v1h-1zM190 15h1v1h-1zM200 15h1v1h-1zM441 36h1v1h-1zM441 40h1v1h-1zM203 41h1v1h-1zM205 41h1v1h-1zM443 42h2v1h-2zM447 42h1v1h-1zM209 43h1v1h-1zM443 43h2v1h-2zM209 44h1v1h-1zM446 44h1v1h-1zM209 45h1v1h-1zM209 46h1v1h-1zM222 46h1v1h-1zM423 46h1v1h-1zM209 47h1v1h-1zM422 47h1v1h-1zM209 48h1v1h-1zM422 48h1v1h-1zM224 49h1v1h-1zM436 55h1v1h-1zM432 56h1v1h-1zM453 66h2v1h-2zM450 67h2v1h-2zM454 67h2v1h-2zM307 68h1v1h-1zM318 68h1v1h-1zM320 68h3v1h-3zM449 68h1v1h-1zM453 68h4v1h-4zM290 69h1v1h-1zM306 69h1v1h-1zM312 69h13v1h-13zM445 69h2v1h-2zM449 69h1v1h-1zM453 69h6v1h-6zM270 70h7v1h-7zM312 70h14v1h-14zM391 70h1v1h-1zM444 70h6v1h-6zM453 70h5v1h-5zM459 70h1v1h-1zM312 71h21v1h-21zM432 71h2v1h-2zM438 71h3v1h-3zM443 71h15v1h-15zM459 71h1v1h-1zM310 72h22v1h-22zM408 72h1v1h-1zM430 72h6v1h-6zM438 72h6v1h-6zM447 72h11v1h-11zM459 72h1v1h-1zM310 73h20v1h-20zM429 73h4v1h-4zM434 73h5v1h-5zM442 73h1v1h-1zM448 73h10v1h-10zM459 73h2v1h-2zM312 74h20v1h-20zM426 74h1v1h-1zM432 74h2v1h-2zM444 74h2v1h-2zM449 74h9v1h-9zM459 74h2v1h-2zM310 75h19v1h-19zM426 75h6v1h-6zM434 75h2v1h-2zM440 75h1v1h-1zM443 75h2v1h-2zM446 75h12v1h-12zM460 75h1v1h-1zM312 76h17v1h-17zM425 76h5v1h-5zM431 76h2v1h-2zM436 76h22v1h-22zM460 76h1v1h-1zM321 77h23v1h-23zM425 77h37v1h-37zM426 78h3v1h-3zM431 78h3v1h-3zM435 78h3v1h-3zM439 78h12v1h-12zM453 78h1v1h-1zM455 78h3v1h-3zM460 78h2v1h-2zM428 79h1v1h-1zM431 79h2v1h-2zM434 79h2v1h-2zM437 79h6v1h-6zM444 79h2v1h-2zM448 79h1v1h-1zM450 79h1v1h-1zM454 79h1v1h-1zM457 79h1v1h-1zM431 80h1v1h-1zM435 80h6v1h-6zM442 80h2v1h-2zM431 81h1v1h-1zM435 81h1v1h-1zM437 81h2v1h-2zM441 81h3v1h-3zM435 82h3v1h-3zM439 82h1v1h-1zM438 83h1v1h-1zM431 88h1v1h-1zM450 88h1v1h-1zM449 89h1v1h-1zM452 89h1v1h-1zM424 90h1v1h-1zM431 90h1v1h-1zM450 90h1v1h-1zM452 90h2v1h-2zM455 90h1v1h-1zM426 91h6v1h-6zM444 91h1v1h-1zM450 91h4v1h-4zM455 91h1v1h-1zM424 92h3v1h-3zM428 92h1v1h-1zM443 92h3v1h-3zM447 92h2v1h-2zM451 92h1v1h-1zM453 92h1v1h-1zM455 92h1v1h-1zM424 93h1v1h-1zM443 93h1v1h-1zM452 93h5v1h-5zM419 94h1v1h-1zM422 94h3v1h-3zM434 94h1v1h-1zM438 94h5v1h-5zM454 94h4v1h-4zM425 95h2v1h-2zM432 95h1v1h-1zM434 95h1v1h-1zM440 95h1v1h-1zM443 95h1v1h-1zM454 95h4v1h-4zM425 96h2v1h-2zM431 96h3v1h-3zM443 96h1v1h-1zM453 96h1v1h-1zM455 96h2v1h-2zM432 97h1v1h-1zM430 98h2v1h-2zM450 98h1v1h-1zM430 99h2v1h-2zM429 100h1v1h-1zM432 100h1v1h-1zM450 100h1v1h-1zM418 101h3v1h-3zM424 101h2v1h-2zM433 101h1v1h-1zM445 101h1v1h-1zM436 102h2v1h-2zM439 102h2v1h-2z"/><path fill="#e1c688" d="M200 6h1v1h-1zM428 12h1v1h-1zM428 13h1v1h-1zM200 16h1v1h-1zM434 29h2v1h-2zM443 30h1v1h-1zM427 32h1v1h-1zM427 33h1v1h-1zM433 33h1v1h-1zM430 34h1v1h-1zM439 34h1v1h-1zM441 34h1v1h-1zM439 35h4v1h-4zM443 36h1v1h-1zM440 37h2v1h-2zM446 37h1v1h-1zM419 38h1v1h-1zM441 38h1v1h-1zM418 39h2v1h-2zM442 39h2v1h-2zM452 39h1v1h-1zM442 40h2v1h-2zM443 41h3v1h-3zM419 42h1v1h-1zM445 42h1v1h-1zM427 43h1v1h-1zM429 44h1v1h-1zM444 44h1v1h-1zM449 44h1v1h-1zM427 45h1v1h-1zM444 45h1v1h-1zM447 45h1v1h-1zM450 45h1v1h-1zM421 47h1v1h-1zM441 47h1v1h-1zM440 48h1v1h-1zM422 49h1v1h-1zM424 49h1v1h-1zM426 49h1v1h-1zM202 50h4v1h-4zM424 50h1v1h-1zM443 50h1v1h-1zM397 51h1v1h-1zM422 51h1v1h-1zM439 51h1v1h-1zM411 52h1v1h-1zM424 52h2v1h-2zM394 53h1v1h-1zM422 53h2v1h-2zM437 53h1v1h-1zM391 54h1v1h-1zM428 54h2v1h-2zM437 54h1v1h-1zM391 55h1v1h-1zM430 55h2v1h-2zM391 56h2v1h-2zM433 56h1v1h-1zM435 56h1v1h-1zM391 57h2v1h-2zM391 58h2v1h-2zM391 59h2v1h-2zM391 60h1v1h-1zM390 61h2v1h-2zM394 61h1v1h-1zM406 61h2v1h-2zM409 61h1v1h-1zM412 61h1v1h-1zM391 62h1v1h-1zM394 62h5v1h-5zM402 62h5v1h-5zM408 62h2v1h-2zM390 63h2v1h-2zM395 63h3v1h-3zM403 63h7v1h-7zM411 63h2v1h-2zM390 64h2v1h-2zM397 64h13v1h-13zM411 64h2v1h-2zM391 65h1v1h-1zM397 65h16v1h-16zM391 66h1v1h-1zM398 66h14v1h-14zM322 67h1v1h-1zM358 67h8v1h-8zM367 67h2v1h-2zM388 67h1v1h-1zM391 67h1v1h-1zM398 67h13v1h-13zM452 67h2v1h-2zM390 68h1v1h-1zM398 68h13v1h-13zM413 68h1v1h-1zM450 68h3v1h-3zM391 69h1v1h-1zM393 69h1v1h-1zM410 69h3v1h-3zM448 69h1v1h-1zM450 69h1v1h-1zM452 69h1v1h-1zM393 70h1v1h-1zM397 70h1v1h-1zM409 70h1v1h-1zM411 70h1v1h-1zM450 70h3v1h-3zM392 71h5v1h-5zM409 71h3v1h-3zM392 72h5v1h-5zM407 72h1v1h-1zM409 72h4v1h-4zM392 73h6v1h-6zM407 73h5v1h-5zM463 73h1v1h-1zM391 74h12v1h-12zM405 74h6v1h-6zM463 74h1v1h-1zM395 75h1v1h-1zM398 75h10v1h-10zM410 75h1v1h-1zM463 75h1v1h-1zM398 76h7v1h-7zM409 76h1v1h-1zM423 76h1v1h-1zM463 76h1v1h-1zM390 77h1v1h-1zM394 77h1v1h-1zM423 77h1v1h-1zM463 77h1v1h-1zM340 78h1v1h-1zM343 78h1v1h-1zM386 78h1v1h-1zM399 78h1v1h-1zM400 79h1v1h-1zM447 79h1v1h-1zM451 79h1v1h-1zM399 80h3v1h-3zM432 80h1v1h-1zM428 81h1v1h-1zM432 81h1v1h-1zM459 81h2v1h-2zM441 83h1v1h-1zM425 87h1v1h-1zM429 89h1v1h-1zM456 91h1v1h-1zM435 92h1v1h-1zM456 92h1v1h-1zM457 93h1v1h-1z"/><path fill="#e42e5d" d="M421 10h1v1h-1zM423 10h1v1h-1zM420 11h2v1h-2zM427 11h3v1h-3zM425 12h2v1h-2zM430 12h1v1h-1zM427 13h1v1h-1zM429 13h2v1h-2zM221 15h8v1h-8zM220 16h10v1h-10zM429 16h1v1h-1zM220 17h3v1h-3zM226 17h4v1h-4zM424 17h2v1h-2zM428 17h1v1h-1zM220 18h10v1h-10zM221 19h9v1h-9zM233 34h7v1h-7zM233 35h7v1h-7zM233 36h2v1h-2zM239 36h2v1h-2zM233 37h2v1h-2zM239 37h2v1h-2zM233 38h2v1h-2zM239 38h2v1h-2zM233 39h8v1h-8zM240 40h1v1h-1zM206 41h1v1h-1zM203 42h1v1h-1zM208 42h1v1h-1zM202 43h1v1h-1zM208 43h1v1h-1zM201 44h2v1h-2zM201 45h1v1h-1zM201 46h1v1h-1zM201 47h1v1h-1zM202 48h1v1h-1zM208 48h1v1h-1zM203 49h6v1h-6zM357 68h14v1h-14zM354 69h2v1h-2zM18 70h28v1h-28zM52 70h1v1h-1zM346 70h6v1h-6zM380 70h2v1h-2zM384 70h1v1h-1zM15 71h27v1h-27zM45 71h7v1h-7zM55 71h1v1h-1zM338 71h11v1h-11zM383 71h4v1h-4zM15 72h24v1h-24zM46 72h4v1h-4zM56 72h1v1h-1zM339 72h9v1h-9zM385 72h3v1h-3zM16 73h22v1h-22zM56 73h1v1h-1zM339 73h8v1h-8zM386 73h2v1h-2zM16 74h20v1h-20zM38 74h3v1h-3zM55 74h2v1h-2zM340 74h9v1h-9zM384 74h4v1h-4zM17 75h21v1h-21zM53 75h1v1h-1zM340 75h9v1h-9zM383 75h5v1h-5zM18 76h18v1h-18zM38 76h3v1h-3zM51 76h3v1h-3zM338 76h10v1h-10zM382 76h5v1h-5zM42 77h5v1h-5zM347 77h31v1h-31z"/><path fill="#eadf72" d="M191 7h1v1h-1zM193 7h2v1h-2zM196 7h1v1h-1zM199 7h1v1h-1zM191 8h9v1h-9zM191 9h9v1h-9zM191 10h9v1h-9zM191 11h9v1h-9zM191 12h9v1h-9zM191 13h9v1h-9zM191 14h9v1h-9zM191 15h9v1h-9zM220 42h8v1h-8zM219 43h9v1h-9zM219 44h9v1h-9zM219 45h9v1h-9zM219 46h3v1h-3zM223 46h5v1h-5zM220 47h8v1h-8zM220 48h7v1h-7zM225 49h1v1h-1zM393 59h1v1h-1zM392 60h2v1h-2zM392 61h2v1h-2zM392 62h2v1h-2zM399 62h3v1h-3zM392 63h3v1h-3zM398 63h5v1h-5zM392 64h5v1h-5zM392 65h5v1h-5zM392 66h6v1h-6zM392 67h6v1h-6zM308 68h10v1h-10zM319 68h1v1h-1zM392 68h6v1h-6zM291 69h2v1h-2zM307 69h5v1h-5zM394 69h16v1h-16zM277 70h35v1h-35zM395 70h2v1h-2zM398 70h11v1h-11zM410 70h1v1h-1zM268 71h44v1h-44zM397 71h12v1h-12zM269 72h41v1h-41zM397 72h10v1h-10zM270 73h40v1h-40zM398 73h9v1h-9zM270 74h42v1h-42zM403 74h2v1h-2zM270 75h40v1h-40zM396 75h2v1h-2zM272 76h40v1h-40zM395 76h3v1h-3zM266 77h55v1h-55zM396 77h1v1h-1zM454 78h1v1h-1zM446 79h1v1h-1zM441 80h1v1h-1zM436 81h1v1h-1zM432 88h2v1h-2zM430 89h3v1h-3zM450 89h1v1h-1zM425 90h3v1h-3zM430 90h1v1h-1zM448 90h2v1h-2zM432 91h2v1h-2zM442 91h2v1h-2zM445 91h1v1h-1zM447 91h2v1h-2zM427 92h1v1h-1zM429 92h5v1h-5zM449 92h2v1h-2zM425 93h10v1h-10zM444 93h8v1h-8zM420 94h2v1h-2zM425 94h9v1h-9zM443 94h11v1h-11zM420 95h5v1h-5zM427 95h5v1h-5zM435 95h5v1h-5zM444 95h10v1h-10zM424 96h1v1h-1zM427 96h4v1h-4zM434 96h1v1h-1zM441 96h2v1h-2zM444 96h9v1h-9zM417 97h1v1h-1zM424 97h7v1h-7zM433 97h1v1h-1zM442 97h10v1h-10zM417 98h13v1h-13zM432 98h3v1h-3zM440 98h10v1h-10zM417 99h13v1h-13zM432 99h18v1h-18zM418 100h11v1h-11zM433 100h15v1h-15zM421 101h3v1h-3zM434 101h11v1h-11zM438 102h1v1h-1z"/><path fill="#ed0956" d="M422 10h1v1h-1zM422 11h2v1h-2zM420 12h5v1h-5zM420 13h7v1h-7zM421 14h9v1h-9zM422 15h8v1h-8zM423 16h6v1h-6zM223 17h3v1h-3zM235 36h4v1h-4zM235 37h4v1h-4zM235 38h4v1h-4zM204 42h4v1h-4zM203 43h5v1h-5zM203 44h6v1h-6zM202 45h7v1h-7zM202 46h7v1h-7zM202 47h7v1h-7zM203 48h5v1h-5zM356 69h17v1h-17zM352 70h28v1h-28zM42 71h3v1h-3zM52 71h3v1h-3zM349 71h34v1h-34zM39 72h7v1h-7zM50 72h6v1h-6zM348 72h37v1h-37zM38 73h18v1h-18zM347 73h39v1h-39zM36 74h2v1h-2zM41 74h14v1h-14zM349 74h35v1h-35zM38 75h15v1h-15zM54 75h1v1h-1zM349 75h34v1h-34zM36 76h2v1h-2zM41 76h10v1h-10zM348 76h34v1h-34z"/><path fill="#eff0cc" d="M200 5h1v1h-1zM427 7h1v1h-1zM445 24h1v1h-1zM208 27h1v1h-1zM219 27h1v1h-1zM420 27h1v1h-1zM208 28h1v1h-1zM219 28h1v1h-1zM208 29h1v1h-1zM208 30h1v1h-1zM219 30h1v1h-1zM208 31h1v1h-1zM219 31h1v1h-1zM208 32h1v1h-1zM208 33h1v1h-1zM436 33h1v1h-1zM452 38h1v1h-1zM202 40h2v1h-2zM210 42h1v1h-1zM218 42h1v1h-1zM210 43h1v1h-1zM449 45h1v1h-1zM210 46h1v1h-1zM210 47h1v1h-1zM210 48h1v1h-1zM400 49h1v1h-1zM402 49h2v1h-2zM397 50h1v1h-1zM402 50h3v1h-3zM225 51h1v1h-1zM393 51h1v1h-1zM395 51h2v1h-2zM402 51h4v1h-4zM407 51h2v1h-2zM443 51h1v1h-1zM392 52h2v1h-2zM405 52h1v1h-1zM390 53h1v1h-1zM402 53h1v1h-1zM408 53h1v1h-1zM401 54h1v1h-1zM409 54h1v1h-1zM409 55h3v1h-3zM400 56h1v1h-1zM408 56h4v1h-4zM400 57h2v1h-2zM408 57h2v1h-2zM412 57h1v1h-1zM401 58h1v1h-1zM407 58h1v1h-1zM401 59h5v1h-5zM422 63h1v1h-1zM0 67h4v1h-4zM369 67h1v1h-1zM464 71h1v1h-1zM464 76h1v1h-1zM408 77h1v1h-1zM464 77h1v1h-1zM245 78h4v1h-4zM251 78h13v1h-13zM270 78h2v1h-2zM328 78h9v1h-9zM338 78h2v1h-2zM342 78h1v1h-1zM344 78h11v1h-11zM356 78h2v1h-2zM360 78h1v1h-1zM376 78h1v1h-1zM380 78h1v1h-1zM382 78h1v1h-1zM384 78h1v1h-1zM387 78h2v1h-2zM392 78h1v1h-1zM394 78h1v1h-1zM408 78h1v1h-1zM423 78h1v1h-1zM404 79h1v1h-1zM424 79h1v1h-1zM427 81h1v1h-1zM463 81h1v1h-1zM457 82h1v1h-1zM440 83h1v1h-1zM434 84h1v1h-1zM433 85h1v1h-1zM431 86h1v1h-1zM443 86h1v1h-1zM456 89h1v1h-1zM457 92h1v1h-1zM418 93h1v1h-1z"/><path fill="#f7f6b3" d="M219 42h1v1h-1zM228 42h1v1h-1zM218 48h1v1h-1zM227 48h2v1h-2zM398 49h2v1h-2zM225 50h1v1h-1zM398 50h4v1h-4zM398 51h4v1h-4zM394 52h1v1h-1zM396 52h1v1h-1zM398 52h4v1h-4zM409 52h2v1h-2zM392 53h2v1h-2zM395 53h7v1h-7zM409 53h1v1h-1zM411 53h1v1h-1zM392 54h9v1h-9zM410 54h3v1h-3zM392 55h9v1h-9zM412 55h1v1h-1zM393 56h7v1h-7zM390 57h1v1h-1zM393 57h7v1h-7zM410 57h2v1h-2zM413 57h1v1h-1zM390 58h1v1h-1zM393 58h8v1h-8zM408 58h6v1h-6zM390 59h1v1h-1zM394 59h7v1h-7zM406 59h8v1h-8zM390 60h1v1h-1zM394 60h20v1h-20zM395 61h11v1h-11zM408 61h1v1h-1zM410 61h2v1h-2zM413 61h1v1h-1zM389 62h2v1h-2zM407 62h1v1h-1zM410 62h3v1h-3zM389 63h1v1h-1zM410 63h1v1h-1zM413 63h1v1h-1zM410 64h1v1h-1zM413 64h1v1h-1zM390 65h1v1h-1zM413 65h1v1h-1zM412 66h2v1h-2zM308 67h1v1h-1zM357 67h1v1h-1zM390 67h1v1h-1zM411 67h1v1h-1zM413 67h1v1h-1zM411 68h2v1h-2zM412 70h1v1h-1zM412 71h1v1h-1zM412 73h1v1h-1zM411 74h2v1h-2zM392 75h3v1h-3zM408 75h2v1h-2zM392 76h3v1h-3zM405 76h1v1h-1zM407 76h1v1h-1zM391 77h3v1h-3zM395 77h1v1h-1zM399 77h2v1h-2zM405 77h3v1h-3zM265 78h3v1h-3zM269 78h1v1h-1zM274 78h2v1h-2zM277 78h2v1h-2zM281 78h1v1h-1zM283 78h2v1h-2zM287 78h2v1h-2zM290 78h1v1h-1zM293 78h1v1h-1zM295 78h1v1h-1zM297 78h1v1h-1zM300 78h2v1h-2zM303 78h2v1h-2zM306 78h1v1h-1zM309 78h3v1h-3zM313 78h1v1h-1zM315 78h2v1h-2zM318 78h1v1h-1zM321 78h1v1h-1zM324 78h3v1h-3zM337 78h1v1h-1zM395 78h3v1h-3zM402 78h4v1h-4zM403 79h1v1h-1zM402 80h2v1h-2zM400 81h3v1h-3zM424 88h1v1h-1zM456 90h1v1h-1zM423 91h1v1h-1z"/><path fill="#fdfbd2" d="M418 10h1v1h-1zM211 42h2v1h-2zM229 42h1v1h-1zM229 43h1v1h-1zM232 43h4v1h-4zM234 44h1v1h-1zM211 46h1v1h-1zM217 46h1v1h-1zM229 46h1v1h-1zM211 47h1v1h-1zM217 47h1v1h-1zM229 47h2v1h-2zM211 48h1v1h-1zM217 48h1v1h-1zM229 48h1v1h-1zM228 49h1v1h-1zM397 49h1v1h-1zM401 49h1v1h-1zM226 50h2v1h-2zM395 50h2v1h-2zM405 50h2v1h-2zM414 50h1v1h-1zM202 51h1v1h-1zM394 51h1v1h-1zM406 51h1v1h-1zM395 52h1v1h-1zM397 52h1v1h-1zM402 52h3v1h-3zM407 52h2v1h-2zM403 53h1v1h-1zM407 53h1v1h-1zM410 53h1v1h-1zM389 54h1v1h-1zM402 54h1v1h-1zM408 54h1v1h-1zM401 55h2v1h-2zM408 55h1v1h-1zM401 56h1v1h-1zM412 56h1v1h-1zM402 57h1v1h-1zM407 57h1v1h-1zM402 58h5v1h-5zM0 66h1v1h-1zM310 66h7v1h-7zM464 72h1v1h-1zM464 73h1v1h-1zM464 74h1v1h-1zM391 75h1v1h-1zM464 75h1v1h-1zM391 76h1v1h-1zM264 78h1v1h-1zM268 78h1v1h-1zM272 78h2v1h-2zM276 78h1v1h-1zM279 78h2v1h-2zM282 78h1v1h-1zM285 78h2v1h-2zM289 78h1v1h-1zM291 78h2v1h-2zM294 78h1v1h-1zM296 78h1v1h-1zM299 78h1v1h-1zM302 78h1v1h-1zM305 78h1v1h-1zM308 78h1v1h-1zM312 78h1v1h-1zM314 78h1v1h-1zM317 78h1v1h-1zM319 78h2v1h-2zM322 78h2v1h-2zM327 78h1v1h-1zM341 78h1v1h-1zM385 78h1v1h-1zM391 78h1v1h-1zM407 78h1v1h-1zM464 78h1v1h-1zM396 79h1v1h-1zM401 79h2v1h-2zM464 79h1v1h-1zM464 80h1v1h-1zM439 83h1v1h-1zM433 84h1v1h-1zM438 84h3v1h-3zM432 85h1v1h-1zM439 85h1v1h-1zM424 86h1v1h-1zM432 86h2v1h-2zM424 87h1v1h-1zM456 88h1v1h-1zM416 89h3v1h-3zM457 89h1v1h-1zM416 90h3v1h-3zM416 91h2v1h-2zM435 91h1v1h-1zM437 91h1v1h-1zM457 91h1v1h-1zM436 92h2v1h-2zM417 93h1v1h-1zM437 93h5v1h-5z"/><path fill="#fff8b1" d="M218 43h1v1h-1zM228 43h1v1h-1zM218 44h1v1h-1zM228 44h1v1h-1zM218 45h1v1h-1zM228 45h1v1h-1zM218 46h1v1h-1zM228 46h1v1h-1zM218 47h2v1h-2zM228 47h1v1h-1zM219 48h1v1h-1zM226 49h2v1h-2zM413 62h1v1h-1zM390 66h1v1h-1zM309 67h13v1h-13zM412 67h1v1h-1zM391 68h1v1h-1zM392 69h1v1h-1zM451 69h1v1h-1zM392 70h1v1h-1zM394 70h1v1h-1zM406 76h1v1h-1zM408 76h1v1h-1zM397 77h2v1h-2zM401 77h4v1h-4zM298 78h1v1h-1zM307 78h1v1h-1zM398 78h1v1h-1zM400 78h2v1h-2zM399 79h1v1h-1zM428 90h2v1h-2zM446 91h1v1h-1zM423 92h1v1h-1zM419 95h1v1h-1zM423 97h1v1h-1z"/><path fill="#000000" d="M0 0h172v1h-172zM182 0h8v1h-8zM200 0h10v1h-10zM259 0h219v1h-219zM0 1h172v1h-172zM182 1h8v1h-8zM200 1h10v1h-10zM260 1h218v1h-218zM0 2h10v1h-10zM17 2h26v1h-26zM45 2h13v1h-13zM60 2h75v1h-75zM138 2h30v1h-30zM182 2h8v1h-8zM200 2h10v1h-10zM262 2h79v1h-79zM350 2h9v1h-9zM362 2h12v1h-12zM377 2h8v1h-8zM392 2h86v1h-86zM0 3h8v1h-8zM17 3h25v1h-25zM45 3h12v1h-12zM60 3h41v1h-41zM102 3h18v1h-18zM121 3h13v1h-13zM140 3h28v1h-28zM182 3h8v1h-8zM200 3h10v1h-10zM262 3h31v1h-31zM294 3h6v1h-6zM301 3h8v1h-8zM310 3h14v1h-14zM325 3h15v1h-15zM353 3h6v1h-6zM362 3h12v1h-12zM377 3h7v1h-7zM392 3h86v1h-86zM0 4h8v1h-8zM16 4h22v1h-22zM40 4h3v1h-3zM47 4h9v1h-9zM59 4h4v1h-4zM65 4h32v1h-32zM102 4h18v1h-18zM121 4h13v1h-13zM140 4h28v1h-28zM182 4h8v1h-8zM200 4h10v1h-10zM262 4h30v1h-30zM295 4h4v1h-4zM302 4h6v1h-6zM311 4h13v1h-13zM325 4h16v1h-16zM353 4h2v1h-2zM356 4h4v1h-4zM364 4h8v1h-8zM376 4h3v1h-3zM381 4h2v1h-2zM391 4h39v1h-39zM432 4h46v1h-46zM0 5h8v1h-8zM16 5h22v1h-22zM41 5h4v1h-4zM48 5h7v1h-7zM58 5h4v1h-4zM65 5h32v1h-32zM102 5h31v1h-31zM140 5h28v1h-28zM182 5h8v1h-8zM201 5h9v1h-9zM263 5h28v1h-28zM295 5h3v1h-3zM302 5h2v1h-2zM306 5h2v1h-2zM312 5h25v1h-25zM338 5h4v1h-4zM352 5h2v1h-2zM357 5h5v1h-5zM365 5h6v1h-6zM374 5h5v1h-5zM382 5h1v1h-1zM390 5h88v1h-88zM0 6h8v1h-8zM11 6h2v1h-2zM14 6h24v1h-24zM40 6h4v1h-4zM51 6h3v1h-3zM58 6h4v1h-4zM66 6h31v1h-31zM98 6h2v1h-2zM102 6h29v1h-29zM139 6h28v1h-28zM170 6h2v1h-2zM182 6h8v1h-8zM201 6h9v1h-9zM270 6h20v1h-20zM295 6h3v1h-3zM301 6h2v1h-2zM307 6h1v1h-1zM313 6h15v1h-15zM329 6h7v1h-7zM339 6h3v1h-3zM347 6h7v1h-7zM357 6h4v1h-4zM367 6h4v1h-4zM375 6h4v1h-4zM382 6h1v1h-1zM386 6h1v1h-1zM389 6h89v1h-89zM0 7h8v1h-8zM11 7h27v1h-27zM40 7h3v1h-3zM60 7h2v1h-2zM65 7h65v1h-65zM137 7h10v1h-10zM150 7h13v1h-13zM169 7h5v1h-5zM175 7h2v1h-2zM178 7h3v1h-3zM210 7h10v1h-10zM230 7h10v1h-10zM250 7h4v1h-4zM259 7h2v1h-2zM263 7h1v1h-1zM268 7h22v1h-22zM295 7h1v1h-1zM300 7h3v1h-3zM307 7h1v1h-1zM313 7h23v1h-23zM340 7h14v1h-14zM357 7h2v1h-2zM377 7h2v1h-2zM382 7h1v1h-1zM386 7h41v1h-41zM428 7h50v1h-50zM0 8h9v1h-9zM11 8h10v1h-10zM22 8h9v1h-9zM33 8h5v1h-5zM41 8h1v1h-1zM60 8h2v1h-2zM65 8h6v1h-6zM74 8h6v1h-6zM83 8h12v1h-12zM104 8h25v1h-25zM136 8h3v1h-3zM142 8h4v1h-4zM150 8h12v1h-12zM169 8h5v1h-5zM175 8h6v1h-6zM210 8h10v1h-10zM230 8h10v1h-10zM250 8h5v1h-5zM256 8h2v1h-2zM259 8h1v1h-1zM262 8h11v1h-11zM274 8h9v1h-9zM284 8h7v1h-7zM300 8h3v1h-3zM312 8h25v1h-25zM344 8h10v1h-10zM357 8h2v1h-2zM377 8h2v1h-2zM382 8h2v1h-2zM387 8h35v1h-35zM426 8h1v1h-1zM432 8h46v1h-46zM0 9h9v1h-9zM13 9h7v1h-7zM23 9h8v1h-8zM33 9h5v1h-5zM65 9h5v1h-5zM75 9h4v1h-4zM84 9h10v1h-10zM105 9h17v1h-17zM127 9h3v1h-3zM135 9h3v1h-3zM141 9h5v1h-5zM150 9h12v1h-12zM169 9h4v1h-4zM176 9h5v1h-5zM210 9h10v1h-10zM230 9h10v1h-10zM250 9h5v1h-5zM256 9h2v1h-2zM262 9h10v1h-10zM275 9h8v1h-8zM285 9h7v1h-7zM300 9h3v1h-3zM311 9h15v1h-15zM328 9h1v1h-1zM330 9h8v1h-8zM346 9h8v1h-8zM382 9h2v1h-2zM388 9h32v1h-32zM434 9h44v1h-44zM0 10h9v1h-9zM13 10h7v1h-7zM23 10h8v1h-8zM33 10h5v1h-5zM46 10h1v1h-1zM56 10h1v1h-1zM65 10h4v1h-4zM76 10h2v1h-2zM85 10h9v1h-9zM105 10h5v1h-5zM111 10h2v1h-2zM114 10h4v1h-4zM119 10h2v1h-2zM127 10h4v1h-4zM135 10h3v1h-3zM139 10h23v1h-23zM169 10h4v1h-4zM176 10h5v1h-5zM210 10h10v1h-10zM230 10h10v1h-10zM250 10h4v1h-4zM259 10h1v1h-1zM262 10h9v1h-9zM275 10h7v1h-7zM285 10h7v1h-7zM297 10h9v1h-9zM312 10h10v1h-10zM323 10h2v1h-2zM331 10h8v1h-8zM353 10h1v1h-1zM362 10h2v1h-2zM372 10h2v1h-2zM382 10h2v1h-2zM388 10h30v1h-30zM435 10h43v1h-43zM0 11h9v1h-9zM13 11h7v1h-7zM22 11h1v1h-1zM24 11h6v1h-6zM32 11h6v1h-6zM65 11h4v1h-4zM76 11h2v1h-2zM85 11h9v1h-9zM105 11h3v1h-3zM112 11h1v1h-1zM128 11h4v1h-4zM134 11h27v1h-27zM169 11h4v1h-4zM176 11h5v1h-5zM210 11h10v1h-10zM230 11h10v1h-10zM250 11h4v1h-4zM259 11h1v1h-1zM262 11h10v1h-10zM274 11h8v1h-8zM284 11h8v1h-8zM296 11h1v1h-1zM300 11h7v1h-7zM316 11h1v1h-1zM328 11h1v1h-1zM331 11h7v1h-7zM353 11h1v1h-1zM382 11h2v1h-2zM388 11h31v1h-31zM436 11h42v1h-42zM0 12h8v1h-8zM13 12h4v1h-4zM18 12h4v1h-4zM24 12h2v1h-2zM27 12h3v1h-3zM32 12h3v1h-3zM65 12h4v1h-4zM76 12h2v1h-2zM85 12h9v1h-9zM105 12h3v1h-3zM111 12h2v1h-2zM124 12h29v1h-29zM155 12h5v1h-5zM168 12h2v1h-2zM171 12h4v1h-4zM177 12h2v1h-2zM210 12h10v1h-10zM230 12h10v1h-10zM250 12h4v1h-4zM263 12h6v1h-6zM270 12h4v1h-4zM276 12h2v1h-2zM279 12h3v1h-3zM283 12h4v1h-4zM288 12h5v1h-5zM296 12h1v1h-1zM300 12h7v1h-7zM309 12h3v1h-3zM316 12h1v1h-1zM328 12h8v1h-8zM352 12h2v1h-2zM382 12h1v1h-1zM388 12h31v1h-31zM436 12h42v1h-42zM0 13h8v1h-8zM13 13h4v1h-4zM19 13h2v1h-2zM24 13h2v1h-2zM28 13h2v1h-2zM33 13h2v1h-2zM65 13h5v1h-5zM71 13h3v1h-3zM76 13h2v1h-2zM80 13h3v1h-3zM84 13h11v1h-11zM103 13h13v1h-13zM123 13h28v1h-28zM156 13h4v1h-4zM168 13h2v1h-2zM172 13h2v1h-2zM177 13h1v1h-1zM210 13h10v1h-10zM230 13h10v1h-10zM250 13h7v1h-7zM263 13h5v1h-5zM271 13h2v1h-2zM275 13h2v1h-2zM280 13h2v1h-2zM285 13h2v1h-2zM289 13h3v1h-3zM296 13h1v1h-1zM300 13h7v1h-7zM311 13h9v1h-9zM327 13h7v1h-7zM351 13h3v1h-3zM382 13h1v1h-1zM388 13h31v1h-31zM436 13h42v1h-42zM0 14h8v1h-8zM13 14h4v1h-4zM19 14h2v1h-2zM23 14h2v1h-2zM29 14h2v1h-2zM33 14h2v1h-2zM37 14h2v1h-2zM64 14h9v1h-9zM74 14h23v1h-23zM98 14h3v1h-3zM102 14h23v1h-23zM126 14h25v1h-25zM156 14h3v1h-3zM168 14h2v1h-2zM172 14h2v1h-2zM176 14h2v1h-2zM210 14h10v1h-10zM230 14h10v1h-10zM250 14h7v1h-7zM264 14h5v1h-5zM270 14h3v1h-3zM274 14h3v1h-3zM281 14h2v1h-2zM285 14h2v1h-2zM289 14h3v1h-3zM301 14h5v1h-5zM311 14h22v1h-22zM350 14h6v1h-6zM380 14h3v1h-3zM388 14h31v1h-31zM437 14h41v1h-41zM0 15h8v1h-8zM12 15h9v1h-9zM22 15h3v1h-3zM29 15h3v1h-3zM33 15h7v1h-7zM63 15h30v1h-30zM94 15h11v1h-11zM106 15h30v1h-30zM138 15h12v1h-12zM157 15h2v1h-2zM168 15h2v1h-2zM172 15h6v1h-6zM210 15h11v1h-11zM229 15h1v1h-1zM250 15h7v1h-7zM259 15h3v1h-3zM264 15h5v1h-5zM270 15h3v1h-3zM274 15h3v1h-3zM281 15h3v1h-3zM285 15h7v1h-7zM302 15h3v1h-3zM311 15h18v1h-18zM330 15h3v1h-3zM350 15h7v1h-7zM379 15h4v1h-4zM387 15h32v1h-32zM433 15h1v1h-1zM435 15h43v1h-43zM0 16h8v1h-8zM10 16h31v1h-31zM62 16h31v1h-31zM94 16h7v1h-7zM102 16h45v1h-45zM149 16h4v1h-4zM157 16h2v1h-2zM168 16h3v1h-3zM172 16h6v1h-6zM179 16h2v1h-2zM183 16h2v1h-2zM201 16h9v1h-9zM240 16h16v1h-16zM259 16h3v1h-3zM264 16h27v1h-27zM302 16h2v1h-2zM313 16h21v1h-21zM352 16h5v1h-5zM378 16h5v1h-5zM386 16h32v1h-32zM419 16h2v1h-2zM431 16h4v1h-4zM438 16h40v1h-40zM0 17h24v1h-24zM25 17h4v1h-4zM30 17h12v1h-12zM45 17h12v1h-12zM60 17h29v1h-29zM92 17h14v1h-14zM110 17h36v1h-36zM150 17h4v1h-4zM157 17h2v1h-2zM168 17h9v1h-9zM178 17h4v1h-4zM183 17h7v1h-7zM200 17h10v1h-10zM240 17h15v1h-15zM259 17h3v1h-3zM265 17h11v1h-11zM277 17h4v1h-4zM282 17h8v1h-8zM295 17h1v1h-1zM301 17h2v1h-2zM307 17h1v1h-1zM313 17h22v1h-22zM352 17h7v1h-7zM362 17h12v1h-12zM377 17h39v1h-39zM418 17h4v1h-4zM430 17h5v1h-5zM436 17h42v1h-42zM0 18h22v1h-22zM25 18h4v1h-4zM31 18h11v1h-11zM45 18h13v1h-13zM60 18h29v1h-29zM92 18h4v1h-4zM98 18h3v1h-3zM103 18h4v1h-4zM110 18h37v1h-37zM150 18h8v1h-8zM168 18h7v1h-7zM178 18h3v1h-3zM184 18h6v1h-6zM200 18h10v1h-10zM240 18h15v1h-15zM258 18h4v1h-4zM265 18h9v1h-9zM277 18h3v1h-3zM283 18h7v1h-7zM295 18h2v1h-2zM300 18h3v1h-3zM306 18h2v1h-2zM313 18h22v1h-22zM352 18h7v1h-7zM362 18h12v1h-12zM377 18h42v1h-42zM420 18h1v1h-1zM423 18h4v1h-4zM430 18h48v1h-48zM0 19h21v1h-21zM26 19h2v1h-2zM33 19h7v1h-7zM44 19h14v1h-14zM63 19h32v1h-32zM104 19h54v1h-54zM168 19h6v1h-6zM178 19h3v1h-3zM186 19h4v1h-4zM200 19h10v1h-10zM240 19h14v1h-14zM257 19h5v1h-5zM266 19h7v1h-7zM278 19h2v1h-2zM284 19h7v1h-7zM295 19h3v1h-3zM300 19h3v1h-3zM305 19h3v1h-3zM312 19h21v1h-21zM353 19h4v1h-4zM360 19h15v1h-15zM379 19h36v1h-36zM416 19h4v1h-4zM421 19h57v1h-57zM0 20h9v1h-9zM52 20h6v1h-6zM147 20h5v1h-5zM240 20h7v1h-7zM290 20h2v1h-2zM354 20h2v1h-2zM359 20h15v1h-15zM387 20h27v1h-27zM415 20h22v1h-22zM438 20h40v1h-40zM0 21h7v1h-7zM53 21h3v1h-3zM149 21h1v1h-1zM240 21h5v1h-5zM291 21h1v1h-1zM339 21h1v1h-1zM355 21h2v1h-2zM359 21h13v1h-13zM388 21h49v1h-49zM438 21h40v1h-40zM0 22h6v1h-6zM240 22h4v1h-4zM356 22h15v1h-15zM388 22h50v1h-50zM439 22h2v1h-2zM442 22h36v1h-36zM0 23h6v1h-6zM240 23h4v1h-4zM356 23h15v1h-15zM388 23h26v1h-26zM415 23h19v1h-19zM436 23h3v1h-3zM440 23h2v1h-2zM443 23h35v1h-35zM0 24h5v1h-5zM238 24h5v1h-5zM357 24h13v1h-13zM388 24h30v1h-30zM420 24h7v1h-7zM430 24h2v1h-2zM437 24h2v1h-2zM444 24h1v1h-1zM446 24h32v1h-32zM0 25h5v1h-5zM202 25h6v1h-6zM221 25h10v1h-10zM238 25h5v1h-5zM345 25h6v1h-6zM357 25h13v1h-13zM377 25h4v1h-4zM389 25h28v1h-28zM424 25h3v1h-3zM430 25h1v1h-1zM438 25h1v1h-1zM446 25h32v1h-32zM0 26h5v1h-5zM11 26h39v1h-39zM59 26h39v1h-39zM106 26h39v1h-39zM153 26h39v1h-39zM201 26h8v1h-8zM219 26h13v1h-13zM238 26h5v1h-5zM249 26h39v1h-39zM296 26h39v1h-39zM344 26h7v1h-7zM357 26h13v1h-13zM376 26h7v1h-7zM389 26h26v1h-26zM418 26h3v1h-3zM447 26h31v1h-31zM0 27h5v1h-5zM11 27h39v1h-39zM59 27h39v1h-39zM106 27h39v1h-39zM153 27h40v1h-40zM201 27h7v1h-7zM220 27h12v1h-12zM238 27h5v1h-5zM248 27h40v1h-40zM296 27h39v1h-39zM344 27h7v1h-7zM357 27h13v1h-13zM376 27h7v1h-7zM389 27h26v1h-26zM418 27h2v1h-2zM421 27h1v1h-1zM448 27h30v1h-30zM0 28h5v1h-5zM11 28h39v1h-39zM59 28h39v1h-39zM106 28h39v1h-39zM153 28h40v1h-40zM201 28h7v1h-7zM220 28h12v1h-12zM248 28h40v1h-40zM296 28h39v1h-39zM344 28h7v1h-7zM361 28h5v1h-5zM376 28h7v1h-7zM389 28h26v1h-26zM419 28h2v1h-2zM450 28h28v1h-28zM0 29h5v1h-5zM11 29h39v1h-39zM59 29h39v1h-39zM106 29h39v1h-39zM153 29h40v1h-40zM201 29h7v1h-7zM219 29h13v1h-13zM249 29h39v1h-39zM296 29h39v1h-39zM344 29h7v1h-7zM363 29h1v1h-1zM376 29h7v1h-7zM389 29h26v1h-26zM450 29h28v1h-28zM0 30h5v1h-5zM11 30h39v1h-39zM59 30h39v1h-39zM106 30h39v1h-39zM153 30h40v1h-40zM201 30h7v1h-7zM220 30h12v1h-12zM249 30h39v1h-39zM296 30h39v1h-39zM344 30h7v1h-7zM376 30h7v1h-7zM389 30h25v1h-25zM430 30h1v1h-1zM451 30h27v1h-27zM0 31h5v1h-5zM11 31h39v1h-39zM59 31h39v1h-39zM106 31h39v1h-39zM153 31h40v1h-40zM201 31h7v1h-7zM220 31h12v1h-12zM249 31h39v1h-39zM296 31h39v1h-39zM344 31h7v1h-7zM376 31h7v1h-7zM389 31h25v1h-25zM426 31h1v1h-1zM451 31h27v1h-27zM0 32h5v1h-5zM11 32h39v1h-39zM59 32h39v1h-39zM106 32h39v1h-39zM153 32h40v1h-40zM201 32h7v1h-7zM220 32h13v1h-13zM249 32h39v1h-39zM296 32h39v1h-39zM344 32h7v1h-7zM376 32h7v1h-7zM389 32h25v1h-25zM452 32h26v1h-26zM0 33h5v1h-5zM25 33h9v1h-9zM59 33h8v1h-8zM106 33h8v1h-8zM153 33h8v1h-8zM201 33h7v1h-7zM231 33h2v1h-2zM249 33h8v1h-8zM296 33h8v1h-8zM327 33h8v1h-8zM344 33h8v1h-8zM356 33h1v1h-1zM374 33h9v1h-9zM389 33h25v1h-25zM426 33h1v1h-1zM428 33h1v1h-1zM432 33h1v1h-1zM434 33h2v1h-2zM442 33h1v1h-1zM452 33h6v1h-6zM460 33h18v1h-18zM0 34h5v1h-5zM26 34h8v1h-8zM59 34h7v1h-7zM106 34h8v1h-8zM153 34h8v1h-8zM201 34h8v1h-8zM249 34h7v1h-7zM296 34h7v1h-7zM328 34h7v1h-7zM344 34h15v1h-15zM368 34h15v1h-15zM389 34h24v1h-24zM425 34h5v1h-5zM431 34h1v1h-1zM437 34h2v1h-2zM440 34h1v1h-1zM442 34h1v1h-1zM453 34h1v1h-1zM463 34h15v1h-15zM0 35h6v1h-6zM26 35h8v1h-8zM59 35h7v1h-7zM106 35h8v1h-8zM153 35h8v1h-8zM201 35h8v1h-8zM248 35h8v1h-8zM296 35h7v1h-7zM328 35h7v1h-7zM344 35h15v1h-15zM368 35h15v1h-15zM389 35h25v1h-25zM423 35h9v1h-9zM438 35h1v1h-1zM443 35h1v1h-1zM464 35h14v1h-14zM0 36h6v1h-6zM26 36h8v1h-8zM59 36h7v1h-7zM106 36h7v1h-7zM153 36h8v1h-8zM201 36h8v1h-8zM248 36h8v1h-8zM296 36h7v1h-7zM328 36h7v1h-7zM344 36h15v1h-15zM368 36h15v1h-15zM389 36h25v1h-25zM422 36h2v1h-2zM426 36h7v1h-7zM435 36h2v1h-2zM438 36h3v1h-3zM442 36h1v1h-1zM457 36h1v1h-1zM465 36h13v1h-13zM0 37h7v1h-7zM26 37h8v1h-8zM59 37h7v1h-7zM106 37h8v1h-8zM153 37h8v1h-8zM201 37h8v1h-8zM248 37h8v1h-8zM296 37h7v1h-7zM328 37h7v1h-7zM344 37h15v1h-15zM368 37h15v1h-15zM389 37h25v1h-25zM420 37h3v1h-3zM425 37h1v1h-1zM427 37h5v1h-5zM436 37h2v1h-2zM439 37h1v1h-1zM442 37h1v1h-1zM453 37h1v1h-1zM465 37h13v1h-13zM0 38h9v1h-9zM26 38h8v1h-8zM51 38h2v1h-2zM59 38h7v1h-7zM99 38h1v1h-1zM106 38h7v1h-7zM146 38h1v1h-1zM153 38h8v1h-8zM193 38h3v1h-3zM201 38h8v1h-8zM248 38h8v1h-8zM288 38h2v1h-2zM296 38h7v1h-7zM328 38h7v1h-7zM344 38h15v1h-15zM368 38h15v1h-15zM389 38h25v1h-25zM418 38h1v1h-1zM420 38h2v1h-2zM424 38h1v1h-1zM426 38h1v1h-1zM428 38h4v1h-4zM436 38h2v1h-2zM440 38h1v1h-1zM442 38h2v1h-2zM446 38h1v1h-1zM453 38h1v1h-1zM465 38h13v1h-13zM0 39h20v1h-20zM26 39h8v1h-8zM40 39h13v1h-13zM59 39h7v1h-7zM72 39h28v1h-28zM106 39h7v1h-7zM134 39h14v1h-14zM153 39h8v1h-8zM166 39h30v1h-30zM201 39h8v1h-8zM248 39h8v1h-8zM277 39h13v1h-13zM296 39h7v1h-7zM328 39h7v1h-7zM344 39h15v1h-15zM368 39h15v1h-15zM389 39h25v1h-25zM420 39h1v1h-1zM424 39h2v1h-2zM428 39h4v1h-4zM440 39h2v1h-2zM465 39h13v1h-13zM0 40h20v1h-20zM26 40h8v1h-8zM39 40h14v1h-14zM59 40h7v1h-7zM72 40h28v1h-28zM106 40h8v1h-8zM134 40h14v1h-14zM153 40h8v1h-8zM166 40h30v1h-30zM201 40h1v1h-1zM204 40h5v1h-5zM233 40h7v1h-7zM248 40h8v1h-8zM277 40h13v1h-13zM296 40h7v1h-7zM327 40h8v1h-8zM344 40h15v1h-15zM368 40h15v1h-15zM389 40h25v1h-25zM418 40h3v1h-3zM425 40h1v1h-1zM429 40h1v1h-1zM431 40h10v1h-10zM444 40h1v1h-1zM465 40h13v1h-13zM0 41h20v1h-20zM26 41h8v1h-8zM39 41h14v1h-14zM59 41h7v1h-7zM72 41h28v1h-28zM106 41h23v1h-23zM135 41h13v1h-13zM153 41h8v1h-8zM166 41h30v1h-30zM213 41h1v1h-1zM231 41h9v1h-9zM249 41h22v1h-22zM277 41h13v1h-13zM296 41h39v1h-39zM344 41h8v1h-8zM360 41h7v1h-7zM375 41h8v1h-8zM389 41h25v1h-25zM418 41h3v1h-3zM428 41h1v1h-1zM430 41h2v1h-2zM433 41h10v1h-10zM446 41h2v1h-2zM465 41h5v1h-5zM472 41h6v1h-6zM0 42h20v1h-20zM26 42h8v1h-8zM39 42h14v1h-14zM59 42h7v1h-7zM72 42h29v1h-29zM106 42h23v1h-23zM135 42h13v1h-13zM153 42h8v1h-8zM166 42h30v1h-30zM213 42h5v1h-5zM230 42h11v1h-11zM249 42h23v1h-23zM277 42h13v1h-13zM296 42h39v1h-39zM344 42h7v1h-7zM360 42h7v1h-7zM376 42h7v1h-7zM389 42h24v1h-24zM426 42h2v1h-2zM429 42h2v1h-2zM434 42h4v1h-4zM441 42h2v1h-2zM446 42h1v1h-1zM464 42h2v1h-2zM474 42h4v1h-4zM0 43h20v1h-20zM26 43h8v1h-8zM39 43h14v1h-14zM59 43h7v1h-7zM72 43h28v1h-28zM106 43h23v1h-23zM135 43h12v1h-12zM153 43h8v1h-8zM166 43h30v1h-30zM211 43h7v1h-7zM230 43h2v1h-2zM236 43h4v1h-4zM249 43h23v1h-23zM277 43h13v1h-13zM296 43h39v1h-39zM344 43h7v1h-7zM360 43h7v1h-7zM376 43h7v1h-7zM389 43h24v1h-24zM419 43h1v1h-1zM422 43h5v1h-5zM430 43h7v1h-7zM441 43h2v1h-2zM445 43h2v1h-2zM463 43h2v1h-2zM467 43h1v1h-1zM469 43h2v1h-2zM472 43h2v1h-2zM475 43h3v1h-3zM0 44h20v1h-20zM26 44h8v1h-8zM39 44h14v1h-14zM59 44h7v1h-7zM72 44h28v1h-28zM106 44h23v1h-23zM135 44h13v1h-13zM153 44h8v1h-8zM166 44h30v1h-30zM210 44h8v1h-8zM229 44h5v1h-5zM235 44h5v1h-5zM249 44h23v1h-23zM277 44h13v1h-13zM296 44h39v1h-39zM344 44h7v1h-7zM360 44h7v1h-7zM376 44h7v1h-7zM389 44h24v1h-24zM419 44h2v1h-2zM422 44h7v1h-7zM438 44h5v1h-5zM445 44h1v1h-1zM463 44h1v1h-1zM466 44h1v1h-1zM468 44h3v1h-3zM475 44h3v1h-3zM0 45h20v1h-20zM26 45h8v1h-8zM40 45h13v1h-13zM59 45h7v1h-7zM72 45h28v1h-28zM106 45h23v1h-23zM135 45h13v1h-13zM153 45h8v1h-8zM166 45h30v1h-30zM210 45h8v1h-8zM229 45h11v1h-11zM249 45h23v1h-23zM277 45h13v1h-13zM296 45h39v1h-39zM344 45h7v1h-7zM360 45h7v1h-7zM376 45h7v1h-7zM389 45h25v1h-25zM420 45h1v1h-1zM422 45h5v1h-5zM428 45h1v1h-1zM433 45h3v1h-3zM438 45h6v1h-6zM445 45h2v1h-2zM448 45h1v1h-1zM464 45h2v1h-2zM467 45h2v1h-2zM475 45h3v1h-3zM0 46h20v1h-20zM26 46h8v1h-8zM39 46h14v1h-14zM59 46h7v1h-7zM72 46h28v1h-28zM106 46h23v1h-23zM135 46h13v1h-13zM153 46h8v1h-8zM166 46h30v1h-30zM212 46h5v1h-5zM230 46h10v1h-10zM249 46h23v1h-23zM277 46h13v1h-13zM296 46h39v1h-39zM344 46h7v1h-7zM360 46h7v1h-7zM376 46h7v1h-7zM389 46h27v1h-27zM426 46h1v1h-1zM429 46h6v1h-6zM438 46h8v1h-8zM464 46h4v1h-4zM475 46h3v1h-3zM0 47h20v1h-20zM26 47h8v1h-8zM39 47h14v1h-14zM59 47h7v1h-7zM72 47h28v1h-28zM106 47h23v1h-23zM135 47h13v1h-13zM153 47h8v1h-8zM166 47h30v1h-30zM212 47h5v1h-5zM231 47h9v1h-9zM249 47h23v1h-23zM277 47h13v1h-13zM296 47h39v1h-39zM344 47h7v1h-7zM360 47h7v1h-7zM376 47h7v1h-7zM389 47h27v1h-27zM423 47h1v1h-1zM429 47h5v1h-5zM436 47h1v1h-1zM438 47h3v1h-3zM442 47h4v1h-4zM462 47h5v1h-5zM468 47h1v1h-1zM475 47h3v1h-3zM0 48h20v1h-20zM26 48h8v1h-8zM39 48h14v1h-14zM59 48h7v1h-7zM72 48h28v1h-28zM106 48h23v1h-23zM135 48h13v1h-13zM153 48h8v1h-8zM166 48h30v1h-30zM212 48h5v1h-5zM230 48h10v1h-10zM249 48h23v1h-23zM277 48h13v1h-13zM296 48h39v1h-39zM344 48h7v1h-7zM360 48h7v1h-7zM376 48h7v1h-7zM389 48h8v1h-8zM407 48h9v1h-9zM421 48h1v1h-1zM423 48h4v1h-4zM434 48h2v1h-2zM437 48h3v1h-3zM441 48h1v1h-1zM445 48h1v1h-1zM448 48h2v1h-2zM455 48h2v1h-2zM461 48h4v1h-4zM467 48h1v1h-1zM474 48h4v1h-4zM0 49h20v1h-20zM26 49h8v1h-8zM39 49h14v1h-14zM59 49h7v1h-7zM72 49h28v1h-28zM106 49h8v1h-8zM135 49h12v1h-12zM153 49h8v1h-8zM166 49h30v1h-30zM229 49h4v1h-4zM249 49h7v1h-7zM277 49h13v1h-13zM296 49h8v1h-8zM327 49h8v1h-8zM344 49h7v1h-7zM376 49h7v1h-7zM389 49h6v1h-6zM396 49h1v1h-1zM404 49h2v1h-2zM408 49h2v1h-2zM411 49h5v1h-5zM423 49h1v1h-1zM425 49h1v1h-1zM427 49h1v1h-1zM434 49h1v1h-1zM438 49h3v1h-3zM451 49h5v1h-5zM460 49h4v1h-4zM466 49h1v1h-1zM473 49h5v1h-5zM0 50h21v1h-21zM26 50h8v1h-8zM39 50h14v1h-14zM59 50h7v1h-7zM72 50h28v1h-28zM106 50h8v1h-8zM134 50h14v1h-14zM153 50h8v1h-8zM166 50h30v1h-30zM206 50h2v1h-2zM228 50h4v1h-4zM249 50h7v1h-7zM277 50h13v1h-13zM296 50h7v1h-7zM328 50h7v1h-7zM344 50h7v1h-7zM376 50h7v1h-7zM389 50h4v1h-4zM407 50h1v1h-1zM410 50h4v1h-4zM415 50h1v1h-1zM422 50h2v1h-2zM425 50h4v1h-4zM438 50h3v1h-3zM444 50h1v1h-1zM449 50h1v1h-1zM452 50h1v1h-1zM455 50h3v1h-3zM459 50h4v1h-4zM472 50h6v1h-6zM0 51h20v1h-20zM26 51h8v1h-8zM40 51h13v1h-13zM59 51h7v1h-7zM72 51h28v1h-28zM106 51h8v1h-8zM134 51h14v1h-14zM153 51h8v1h-8zM166 51h30v1h-30zM201 51h1v1h-1zM203 51h6v1h-6zM226 51h6v1h-6zM249 51h7v1h-7zM277 51h13v1h-13zM296 51h7v1h-7zM328 51h7v1h-7zM344 51h7v1h-7zM376 51h7v1h-7zM389 51h4v1h-4zM409 51h1v1h-1zM413 51h3v1h-3zM419 51h1v1h-1zM423 51h7v1h-7zM432 51h4v1h-4zM437 51h2v1h-2zM440 51h1v1h-1zM444 51h1v1h-1zM452 51h6v1h-6zM459 51h4v1h-4zM470 51h8v1h-8zM0 52h8v1h-8zM26 52h8v1h-8zM52 52h1v1h-1zM59 52h7v1h-7zM106 52h7v1h-7zM153 52h8v1h-8zM194 52h1v1h-1zM201 52h8v1h-8zM225 52h7v1h-7zM249 52h7v1h-7zM296 52h7v1h-7zM328 52h7v1h-7zM344 52h7v1h-7zM376 52h7v1h-7zM389 52h3v1h-3zM406 52h1v1h-1zM413 52h1v1h-1zM415 52h1v1h-1zM418 52h2v1h-2zM422 52h2v1h-2zM426 52h4v1h-4zM433 52h2v1h-2zM436 52h2v1h-2zM439 52h2v1h-2zM443 52h2v1h-2zM450 52h6v1h-6zM457 52h1v1h-1zM460 52h1v1h-1zM468 52h10v1h-10zM0 53h7v1h-7zM26 53h8v1h-8zM59 53h7v1h-7zM106 53h8v1h-8zM153 53h8v1h-8zM201 53h8v1h-8zM225 53h7v1h-7zM249 53h7v1h-7zM296 53h7v1h-7zM328 53h7v1h-7zM344 53h7v1h-7zM376 53h7v1h-7zM389 53h1v1h-1zM391 53h1v1h-1zM404 53h3v1h-3zM413 53h1v1h-1zM415 53h1v1h-1zM424 53h7v1h-7zM436 53h1v1h-1zM442 53h3v1h-3zM449 53h10v1h-10zM466 53h12v1h-12zM0 54h6v1h-6zM26 54h8v1h-8zM59 54h7v1h-7zM106 54h8v1h-8zM153 54h8v1h-8zM201 54h8v1h-8zM225 54h7v1h-7zM249 54h7v1h-7zM296 54h7v1h-7zM328 54h7v1h-7zM344 54h7v1h-7zM357 54h13v1h-13zM376 54h7v1h-7zM390 54h1v1h-1zM403 54h5v1h-5zM414 54h1v1h-1zM422 54h2v1h-2zM427 54h1v1h-1zM430 54h2v1h-2zM435 54h2v1h-2zM441 54h3v1h-3zM449 54h1v1h-1zM452 54h7v1h-7zM460 54h2v1h-2zM464 54h14v1h-14zM0 55h6v1h-6zM26 55h8v1h-8zM59 55h7v1h-7zM106 55h8v1h-8zM153 55h8v1h-8zM201 55h8v1h-8zM214 55h5v1h-5zM225 55h7v1h-7zM249 55h7v1h-7zM296 55h7v1h-7zM309 55h13v1h-13zM328 55h7v1h-7zM344 55h7v1h-7zM357 55h13v1h-13zM376 55h7v1h-7zM389 55h2v1h-2zM403 55h5v1h-5zM414 55h2v1h-2zM417 55h2v1h-2zM427 55h1v1h-1zM432 55h4v1h-4zM440 55h4v1h-4zM452 55h6v1h-6zM459 55h19v1h-19zM0 56h5v1h-5zM26 56h8v1h-8zM59 56h7v1h-7zM106 56h8v1h-8zM153 56h8v1h-8zM201 56h8v1h-8zM214 56h5v1h-5zM225 56h7v1h-7zM249 56h7v1h-7zM296 56h7v1h-7zM309 56h13v1h-13zM328 56h7v1h-7zM344 56h7v1h-7zM357 56h13v1h-13zM376 56h7v1h-7zM389 56h2v1h-2zM402 56h6v1h-6zM413 56h7v1h-7zM434 56h1v1h-1zM439 56h2v1h-2zM443 56h2v1h-2zM449 56h2v1h-2zM453 56h5v1h-5zM459 56h19v1h-19zM0 57h5v1h-5zM11 57h38v1h-38zM59 57h38v1h-38zM106 57h39v1h-39zM153 57h39v1h-39zM201 57h8v1h-8zM214 57h6v1h-6zM233 57h7v1h-7zM249 57h38v1h-38zM296 57h7v1h-7zM309 57h13v1h-13zM328 57h7v1h-7zM344 57h7v1h-7zM357 57h13v1h-13zM376 57h7v1h-7zM403 57h4v1h-4zM415 57h5v1h-5zM425 57h1v1h-1zM429 57h1v1h-1zM447 57h3v1h-3zM452 57h2v1h-2zM455 57h1v1h-1zM460 57h18v1h-18zM0 58h5v1h-5zM10 58h40v1h-40zM59 58h39v1h-39zM106 58h39v1h-39zM153 58h40v1h-40zM201 58h8v1h-8zM214 58h6v1h-6zM233 58h7v1h-7zM249 58h39v1h-39zM296 58h7v1h-7zM309 58h13v1h-13zM328 58h7v1h-7zM344 58h7v1h-7zM357 58h13v1h-13zM376 58h7v1h-7zM389 58h1v1h-1zM415 58h4v1h-4zM420 58h1v1h-1zM424 58h1v1h-1zM426 58h1v1h-1zM445 58h2v1h-2zM462 58h16v1h-16zM0 59h5v1h-5zM10 59h40v1h-40zM59 59h39v1h-39zM106 59h39v1h-39zM153 59h40v1h-40zM201 59h8v1h-8zM214 59h6v1h-6zM233 59h7v1h-7zM249 59h39v1h-39zM296 59h7v1h-7zM309 59h13v1h-13zM328 59h7v1h-7zM344 59h7v1h-7zM357 59h13v1h-13zM376 59h7v1h-7zM389 59h1v1h-1zM415 59h3v1h-3zM443 59h2v1h-2zM462 59h16v1h-16zM0 60h5v1h-5zM11 60h39v1h-39zM59 60h39v1h-39zM106 60h39v1h-39zM153 60h40v1h-40zM201 60h8v1h-8zM214 60h7v1h-7zM233 60h7v1h-7zM249 60h39v1h-39zM296 60h7v1h-7zM309 60h13v1h-13zM328 60h7v1h-7zM344 60h7v1h-7zM357 60h13v1h-13zM376 60h7v1h-7zM389 60h1v1h-1zM415 60h2v1h-2zM441 60h2v1h-2zM462 60h16v1h-16zM0 61h5v1h-5zM10 61h40v1h-40zM59 61h39v1h-39zM106 61h39v1h-39zM153 61h40v1h-40zM201 61h8v1h-8zM214 61h8v1h-8zM233 61h7v1h-7zM249 61h39v1h-39zM296 61h7v1h-7zM309 61h13v1h-13zM328 61h7v1h-7zM344 61h7v1h-7zM357 61h13v1h-13zM376 61h7v1h-7zM389 61h1v1h-1zM415 61h2v1h-2zM439 61h2v1h-2zM462 61h16v1h-16zM0 62h5v1h-5zM10 62h40v1h-40zM59 62h39v1h-39zM106 62h39v1h-39zM153 62h40v1h-40zM201 62h8v1h-8zM214 62h11v1h-11zM233 62h7v1h-7zM248 62h40v1h-40zM296 62h7v1h-7zM309 62h13v1h-13zM328 62h7v1h-7zM344 62h8v1h-8zM357 62h13v1h-13zM376 62h7v1h-7zM415 62h1v1h-1zM436 62h3v1h-3zM463 62h15v1h-15zM0 63h5v1h-5zM10 63h40v1h-40zM59 63h39v1h-39zM106 63h39v1h-39zM153 63h40v1h-40zM201 63h8v1h-8zM214 63h13v1h-13zM233 63h7v1h-7zM248 63h40v1h-40zM296 63h7v1h-7zM309 63h13v1h-13zM328 63h7v1h-7zM344 63h8v1h-8zM357 63h13v1h-13zM375 63h8v1h-8zM415 63h1v1h-1zM434 63h3v1h-3zM463 63h15v1h-15zM0 64h5v1h-5zM11 64h36v1h-36zM48 64h1v1h-1zM59 64h1v1h-1zM61 64h36v1h-36zM107 64h1v1h-1zM109 64h36v1h-36zM154 64h37v1h-37zM202 64h6v1h-6zM214 64h13v1h-13zM234 64h5v1h-5zM249 64h38v1h-38zM297 64h3v1h-3zM301 64h2v1h-2zM309 64h13v1h-13zM328 64h6v1h-6zM344 64h7v1h-7zM357 64h13v1h-13zM376 64h6v1h-6zM389 64h1v1h-1zM422 64h1v1h-1zM432 64h3v1h-3zM457 64h1v1h-1zM464 64h14v1h-14zM0 65h5v1h-5zM214 65h13v1h-13zM309 65h13v1h-13zM357 65h13v1h-13zM389 65h1v1h-1zM416 65h7v1h-7zM425 65h1v1h-1zM430 65h3v1h-3zM438 65h1v1h-1zM450 65h1v1h-1zM457 65h2v1h-2zM464 65h14v1h-14zM1 66h5v1h-5zM214 66h14v1h-14zM308 66h2v1h-2zM317 66h6v1h-6zM356 66h15v1h-15zM388 66h1v1h-1zM416 66h1v1h-1zM419 66h4v1h-4zM428 66h3v1h-3zM464 66h14v1h-14zM4 67h2v1h-2zM214 67h14v1h-14zM356 67h1v1h-1zM366 67h1v1h-1zM370 67h1v1h-1zM417 67h6v1h-6zM426 67h4v1h-4zM464 67h14v1h-14zM415 68h5v1h-5zM424 68h3v1h-3zM464 68h14v1h-14zM415 69h3v1h-3zM423 69h3v1h-3zM463 69h15v1h-15zM414 70h3v1h-3zM420 70h1v1h-1zM422 70h1v1h-1zM463 70h15v1h-15zM414 71h3v1h-3zM418 71h1v1h-1zM420 71h3v1h-3zM463 71h1v1h-1zM465 71h13v1h-13zM415 72h1v1h-1zM418 72h5v1h-5zM425 72h1v1h-1zM463 72h1v1h-1zM465 72h13v1h-13zM413 73h1v1h-1zM415 73h1v1h-1zM417 73h6v1h-6zM465 73h13v1h-13zM417 74h4v1h-4zM465 74h13v1h-13zM411 75h1v1h-1zM417 75h4v1h-4zM422 75h2v1h-2zM465 75h13v1h-13zM413 76h2v1h-2zM417 76h1v1h-1zM421 76h2v1h-2zM465 76h13v1h-13zM14 77h28v1h-28zM47 77h9v1h-9zM149 77h1v1h-1zM409 77h1v1h-1zM411 77h3v1h-3zM420 77h3v1h-3zM465 77h13v1h-13zM0 78h245v1h-245zM249 78h2v1h-2zM355 78h1v1h-1zM358 78h2v1h-2zM361 78h15v1h-15zM377 78h3v1h-3zM381 78h1v1h-1zM383 78h1v1h-1zM389 78h1v1h-1zM393 78h1v1h-1zM406 78h1v1h-1zM409 78h1v1h-1zM411 78h3v1h-3zM420 78h3v1h-3zM463 78h1v1h-1zM465 78h13v1h-13zM0 79h390v1h-390zM395 79h1v1h-1zM397 79h1v1h-1zM407 79h3v1h-3zM411 79h3v1h-3zM420 79h4v1h-4zM463 79h1v1h-1zM465 79h13v1h-13zM0 80h392v1h-392zM404 80h1v1h-1zM409 80h1v1h-1zM411 80h3v1h-3zM420 80h6v1h-6zM462 80h2v1h-2zM465 80h13v1h-13zM0 81h393v1h-393zM394 81h2v1h-2zM397 81h1v1h-1zM403 81h1v1h-1zM406 81h1v1h-1zM411 81h3v1h-3zM419 81h8v1h-8zM461 81h2v1h-2zM464 81h14v1h-14zM0 82h393v1h-393zM394 82h4v1h-4zM401 82h2v1h-2zM405 82h8v1h-8zM419 82h9v1h-9zM455 82h2v1h-2zM458 82h20v1h-20zM0 83h179v1h-179zM180 83h3v1h-3zM185 83h2v1h-2zM188 83h1v1h-1zM190 83h3v1h-3zM194 83h3v1h-3zM198 83h1v1h-1zM200 83h2v1h-2zM204 83h3v1h-3zM208 83h4v1h-4zM214 83h3v1h-3zM218 83h2v1h-2zM221 83h6v1h-6zM232 83h2v1h-2zM239 83h3v1h-3zM244 83h5v1h-5zM253 83h2v1h-2zM260 83h6v1h-6zM270 83h3v1h-3zM278 83h2v1h-2zM282 83h4v1h-4zM287 83h3v1h-3zM291 83h2v1h-2zM297 83h3v1h-3zM304 83h4v1h-4zM312 83h2v1h-2zM316 83h3v1h-3zM321 83h2v1h-2zM324 83h2v1h-2zM331 83h2v1h-2zM338 83h3v1h-3zM345 83h7v1h-7zM353 83h2v1h-2zM356 83h4v1h-4zM361 83h2v1h-2zM364 83h4v1h-4zM369 83h2v1h-2zM376 83h2v1h-2zM379 83h2v1h-2zM386 83h7v1h-7zM396 83h4v1h-4zM404 83h9v1h-9zM419 83h8v1h-8zM442 83h1v1h-1zM455 83h23v1h-23zM0 84h179v1h-179zM180 84h3v1h-3zM185 84h2v1h-2zM188 84h1v1h-1zM190 84h2v1h-2zM193 84h1v1h-1zM195 84h2v1h-2zM198 84h1v1h-1zM200 84h2v1h-2zM204 84h8v1h-8zM214 84h3v1h-3zM219 84h2v1h-2zM222 84h2v1h-2zM225 84h2v1h-2zM228 84h6v1h-6zM235 84h4v1h-4zM240 84h2v1h-2zM243 84h5v1h-5zM249 84h3v1h-3zM254 84h1v1h-1zM256 84h9v1h-9zM266 84h6v1h-6zM273 84h4v1h-4zM278 84h2v1h-2zM282 84h3v1h-3zM287 84h5v1h-5zM293 84h3v1h-3zM297 84h2v1h-2zM300 84h4v1h-4zM305 84h2v1h-2zM308 84h6v1h-6zM316 84h3v1h-3zM321 84h2v1h-2zM324 84h2v1h-2zM327 84h3v1h-3zM331 84h2v1h-2zM334 84h3v1h-3zM338 84h2v1h-2zM341 84h4v1h-4zM346 84h2v1h-2zM349 84h2v1h-2zM352 84h3v1h-3zM357 84h3v1h-3zM362 84h1v1h-1zM364 84h4v1h-4zM369 84h2v1h-2zM372 84h3v1h-3zM376 84h2v1h-2zM379 84h2v1h-2zM382 84h3v1h-3zM386 84h8v1h-8zM397 84h15v1h-15zM414 84h2v1h-2zM417 84h9v1h-9zM437 84h1v1h-1zM441 84h2v1h-2zM454 84h24v1h-24zM0 85h180v1h-180zM181 85h1v1h-1zM183 85h1v1h-1zM185 85h2v1h-2zM188 85h1v1h-1zM190 85h2v1h-2zM193 85h1v1h-1zM195 85h4v1h-4zM200 85h2v1h-2zM203 85h1v1h-1zM205 85h1v1h-1zM207 85h5v1h-5zM214 85h2v1h-2zM217 85h4v1h-4zM222 85h1v1h-1zM224 85h3v1h-3zM229 85h5v1h-5zM235 85h3v1h-3zM239 85h3v1h-3zM243 85h1v1h-1zM245 85h10v1h-10zM256 85h9v1h-9zM266 85h6v1h-6zM273 85h5v1h-5zM279 85h1v1h-1zM283 85h2v1h-2zM287 85h5v1h-5zM293 85h6v1h-6zM300 85h5v1h-5zM306 85h2v1h-2zM309 85h5v1h-5zM316 85h3v1h-3zM321 85h2v1h-2zM324 85h1v1h-1zM326 85h7v1h-7zM334 85h3v1h-3zM338 85h2v1h-2zM341 85h4v1h-4zM346 85h3v1h-3zM350 85h5v1h-5zM357 85h2v1h-2zM361 85h2v1h-2zM364 85h4v1h-4zM369 85h2v1h-2zM373 85h7v1h-7zM381 85h13v1h-13zM397 85h14v1h-14zM415 85h1v1h-1zM417 85h9v1h-9zM431 85h1v1h-1zM434 85h5v1h-5zM440 85h2v1h-2zM453 85h25v1h-25zM0 86h180v1h-180zM181 86h1v1h-1zM183 86h2v1h-2zM186 86h6v1h-6zM193 86h1v1h-1zM195 86h1v1h-1zM197 86h7v1h-7zM205 86h1v1h-1zM207 86h5v1h-5zM213 86h3v1h-3zM217 86h5v1h-5zM223 86h6v1h-6zM232 86h2v1h-2zM238 86h3v1h-3zM242 86h2v1h-2zM245 86h3v1h-3zM249 86h6v1h-6zM260 86h5v1h-5zM266 86h6v1h-6zM273 86h5v1h-5zM279 86h1v1h-1zM281 86h1v1h-1zM283 86h1v1h-1zM285 86h1v1h-1zM287 86h2v1h-2zM290 86h1v1h-1zM292 86h7v1h-7zM300 86h5v1h-5zM306 86h4v1h-4zM312 86h2v1h-2zM315 86h1v1h-1zM317 86h1v1h-1zM319 86h1v1h-1zM321 86h2v1h-2zM324 86h1v1h-1zM326 86h7v1h-7zM338 86h1v1h-1zM341 86h4v1h-4zM346 86h4v1h-4zM351 86h4v1h-4zM356 86h3v1h-3zM360 86h3v1h-3zM364 86h4v1h-4zM369 86h4v1h-4zM375 86h5v1h-5zM381 86h14v1h-14zM398 86h11v1h-11zM412 86h2v1h-2zM415 86h9v1h-9zM425 86h1v1h-1zM434 86h8v1h-8zM444 86h1v1h-1zM453 86h25v1h-25zM0 87h180v1h-180zM181 87h1v1h-1zM183 87h2v1h-2zM187 87h3v1h-3zM191 87h5v1h-5zM197 87h3v1h-3zM202 87h2v1h-2zM207 87h5v1h-5zM213 87h1v1h-1zM215 87h3v1h-3zM219 87h3v1h-3zM223 87h8v1h-8zM232 87h2v1h-2zM235 87h6v1h-6zM246 87h2v1h-2zM249 87h4v1h-4zM254 87h1v1h-1zM256 87h9v1h-9zM266 87h4v1h-4zM271 87h1v1h-1zM273 87h5v1h-5zM279 87h1v1h-1zM281 87h1v1h-1zM283 87h1v1h-1zM285 87h1v1h-1zM287 87h2v1h-2zM290 87h2v1h-2zM293 87h4v1h-4zM298 87h1v1h-1zM300 87h5v1h-5zM306 87h8v1h-8zM315 87h1v1h-1zM317 87h1v1h-1zM319 87h1v1h-1zM321 87h2v1h-2zM324 87h1v1h-1zM326 87h7v1h-7zM334 87h3v1h-3zM338 87h2v1h-2zM341 87h4v1h-4zM346 87h4v1h-4zM351 87h4v1h-4zM356 87h1v1h-1zM358 87h3v1h-3zM362 87h1v1h-1zM364 87h4v1h-4zM369 87h6v1h-6zM376 87h21v1h-21zM400 87h6v1h-6zM409 87h15v1h-15zM434 87h8v1h-8zM453 87h25v1h-25zM0 88h180v1h-180zM182 88h3v1h-3zM187 88h3v1h-3zM192 88h3v1h-3zM197 88h3v1h-3zM202 88h3v1h-3zM206 88h6v1h-6zM213 88h1v1h-1zM216 88h6v1h-6zM223 88h4v1h-4zM228 88h3v1h-3zM232 88h2v1h-2zM235 88h10v1h-10zM246 88h2v1h-2zM250 88h2v1h-2zM253 88h2v1h-2zM256 88h9v1h-9zM266 88h3v1h-3zM270 88h3v1h-3zM274 88h3v1h-3zM278 88h2v1h-2zM281 88h2v1h-2zM284 88h2v1h-2zM287 88h5v1h-5zM294 88h2v1h-2zM297 88h3v1h-3zM301 88h2v1h-2zM305 88h2v1h-2zM309 88h2v1h-2zM312 88h2v1h-2zM315 88h1v1h-1zM318 88h2v1h-2zM321 88h2v1h-2zM324 88h2v1h-2zM327 88h3v1h-3zM331 88h2v1h-2zM334 88h3v1h-3zM338 88h2v1h-2zM342 88h2v1h-2zM346 88h4v1h-4zM351 88h4v1h-4zM356 88h1v1h-1zM359 88h1v1h-1zM362 88h2v1h-2zM365 88h2v1h-2zM369 88h2v1h-2zM372 88h3v1h-3zM376 88h5v1h-5zM382 88h3v1h-3zM386 88h13v1h-13zM410 88h14v1h-14zM435 88h7v1h-7zM455 88h1v1h-1zM457 88h21v1h-21zM0 89h181v1h-181zM182 89h9v1h-9zM192 89h3v1h-3zM196 89h9v1h-9zM206 89h6v1h-6zM213 89h9v1h-9zM223 89h6v1h-6zM231 89h3v1h-3zM235 89h5v1h-5zM241 89h9v1h-9zM252 89h3v1h-3zM260 89h2v1h-2zM263 89h3v1h-3zM269 89h5v1h-5zM277 89h3v1h-3zM281 89h2v1h-2zM284 89h2v1h-2zM287 89h1v1h-1zM289 89h4v1h-4zM296 89h5v1h-5zM304 89h4v1h-4zM311 89h3v1h-3zM315 89h2v1h-2zM318 89h2v1h-2zM321 89h2v1h-2zM324 89h3v1h-3zM330 89h3v1h-3zM337 89h5v1h-5zM344 89h11v1h-11zM356 89h9v1h-9zM367 89h5v1h-5zM375 89h7v1h-7zM385 89h31v1h-31zM419 89h5v1h-5zM435 89h7v1h-7zM455 89h1v1h-1zM458 89h20v1h-20zM0 90h416v1h-416zM419 90h5v1h-5zM435 90h6v1h-6zM457 90h21v1h-21zM0 91h416v1h-416zM418 91h5v1h-5zM436 91h1v1h-1zM438 91h3v1h-3zM458 91h20v1h-20zM0 92h423v1h-423zM438 92h4v1h-4zM458 92h20v1h-20zM0 93h417v1h-417zM419 93h2v1h-2zM458 93h20v1h-20zM0 94h419v1h-419zM458 94h20v1h-20zM0 95h419v1h-419zM459 95h19v1h-19zM0 96h424v1h-424zM435 96h6v1h-6zM460 96h18v1h-18zM0 97h417v1h-417zM418 97h5v1h-5zM434 97h8v1h-8zM460 97h18v1h-18zM0 98h417v1h-417zM435 98h5v1h-5zM459 98h19v1h-19zM0 99h417v1h-417zM459 99h19v1h-19zM0 100h418v1h-418zM456 100h22v1h-22zM0 101h418v1h-418zM455 101h23v1h-23zM0 102h418v1h-418zM454 102h24v1h-24zM0 103h418v1h-418zM431 103h3v1h-3zM441 103h2v1h-2zM452 103h26v1h-26z"/></svg>
